<?xml version="1.0" encoding="UTF-8"?>
<svg width="208px" height="232px" viewBox="0 0 208 232" version="1.1" xmlns="http://www.w3.org/2000/svg" xmlns:xlink="http://www.w3.org/1999/xlink">
    <!-- Generator: Sketch 58 (84663) - https://sketch.com -->
    <title>icons-06</title>
    <desc>Created with Sketch.</desc>
    <g id="icons-06" stroke="none" stroke-width="1" fill="none" fill-rule="evenodd">
        <g fill="#60C1D8" fill-rule="nonzero">
            <path d="M176,0 L32,0 C14.4,0 0,14.4 0,32 L0,170.2 C0,180.1 5.4,188.4 13.1,194.2 C13.1,194.5 12.8,195.2 12.8,195.8 L12.8,209.4 C12.8,221.9 22.7,231.8 35.2,231.8 L41.6,231.8 C54.1,231.8 64,221.9 64,209.4 L64,202.2 L144,202.2 L144,209.4 C144,221.9 153.9,231.8 166.4,231.8 L172.8,231.8 C185.3,231.8 195.2,221.9 195.2,209.4 L195.2,195.8 C202.9,190 208,180.8 208,170.2 L208,32 C208,14.4 193.6,0 176,0 Z M51.2,209.4 C51.2,214.8 47,219 41.6,219 L35.2,219 C29.8,219 25.6,214.8 25.6,209.4 L25.6,200.6 C28.8,201.6 32,202.2 35.2,202.2 L51.2,202.2 L51.2,209.4 Z M182.4,209.4 C182.4,214.8 178.2,219 172.8,219 L166.4,219 C161,219 156.8,214.8 156.8,209.4 L156.8,202.2 L176,202.2 C178.2,202.2 180.5,201.9 182.4,201.6 L182.4,209.4 Z M195.2,170.2 C195.2,180.8 186.6,189.4 176,189.4 L35.2,189.4 C25,189.4 12.8,180.8 12.8,170.2 L12.8,123.8 L195.2,123.8 L195.2,170.2 Z M195.2,111 L12.8,111 L12.8,64 L195.2,64 L195.2,111 Z M195.2,51.2 L12.8,51.2 L12.8,32 C12.8,21.4 21.4,12.8 32,12.8 L176,12.8 C186.6,12.8 195.2,21.4 195.2,32 L195.2,51.2 Z" id="Shape"></path>
            <path d="M115.2,25.6 L73.6,25.6 C70.1,25.6 67.2,28.5 67.2,32 C67.2,35.5 70.1,38.4 73.6,38.4 L115.2,38.4 C118.7,38.4 121.6,35.5 121.6,32 C121.6,28.5 118.7,25.6 115.2,25.6 Z" id="Path"></path>
            <path d="M153.6,25.6 L144,25.6 C140.5,25.6 137.6,28.5 137.6,32 C137.6,35.5 140.5,38.4 144,38.4 L153.6,38.4 C157.1,38.4 160,35.5 160,32 C160,28.5 157.1,25.6 153.6,25.6 Z" id="Path"></path>
            <path d="M48,175 C58.6,175 67.2,166.4 67.2,155.8 C67.2,145.2 58.6,136.6 48,136.6 C37.4,136.6 28.8,145.2 28.8,155.8 C28.8,166.4 37.4,175 48,175 Z M48,149.4 C51.5,149.4 54.4,152.3 54.4,155.8 C54.4,159.3 51.5,162.2 48,162.2 C44.5,162.2 41.6,159.3 41.6,155.8 C41.6,152.3 44.5,149.4 48,149.4 Z" id="Shape"></path>
            <path d="M160,175 C170.6,175 179.2,166.4 179.2,155.8 C179.2,145.2 170.6,136.6 160,136.6 C149.4,136.6 140.8,145.2 140.8,155.8 C140.8,166.4 149.4,175 160,175 Z M160,149.4 C163.5,149.4 166.4,152.3 166.4,155.8 C166.4,159.3 163.5,162.2 160,162.2 C156.5,162.2 153.6,159.3 153.6,155.8 C153.6,152.3 156.5,149.4 160,149.4 Z" id="Shape"></path>
        </g>
    </g>
</svg>