<?xml version="1.0" encoding="UTF-8"?>
<svg width="11px" height="11px" viewBox="0 0 11 11" version="1.1" xmlns="http://www.w3.org/2000/svg" xmlns:xlink="http://www.w3.org/1999/xlink">
    <!-- Generator: Sketch 58 (84663) - https://sketch.com -->
    <title>call</title>
    <desc>Created with Sketch.</desc>
    <defs>
        <polygon id="path-1" points="6.70915832e-06 8.8e-05 10.83632 8.8e-05 10.83632 10.884368 6.70915832e-06 10.884368"></polygon>
    </defs>
    <g id="Symbols" stroke="none" stroke-width="1" fill="none" fill-rule="evenodd">
        <g id="Footer" transform="translate(-585.000000, -473.000000)">
            <g id="call" transform="translate(585.000000, 473.000000)">
                <g id="Group-3">
                    <mask id="mask-2" fill="white">
                        <use xlink:href="#path-1"></use>
                    </mask>
                    <g id="Clip-2"></g>
                    <path d="M9.148062,9.758628 C8.914422,10.008768 8.638762,10.125148 8.280822,10.125148 C8.246282,10.125808 8.208442,10.125148 8.173242,10.122728 C7.464622,10.077408 6.805722,9.799988 6.310942,9.563488 C4.950462,8.904588 3.758062,7.970688 2.766962,6.787748 C1.949662,5.802808 1.400542,4.888268 1.038422,3.909488 C0.817762,3.319008 0.735482,2.860528 0.771342,2.422508 C0.794222,2.153668 0.898062,1.930368 1.088582,1.740068 L1.910502,0.918148 C2.019402,0.815848 2.133142,0.761508 2.239622,0.761508 C2.372282,0.761508 2.483382,0.844668 2.561702,0.922988 C2.700082,1.052568 2.829662,1.183468 2.994002,1.353088 C3.032722,1.392908 3.071662,1.432728 3.111262,1.472768 L3.882802,2.246728 C4.117982,2.481908 4.117982,2.682328 3.882802,2.917288 L3.810202,2.990548 C3.765542,3.035648 3.721322,3.080528 3.674902,3.125408 C3.459742,3.345848 3.274722,3.529768 3.068142,3.714788 L3.051422,3.731728 C2.833402,3.954588 2.871022,4.179208 2.918542,4.329468 L2.927342,4.355208 C3.098282,4.770128 3.341162,5.166568 3.717362,5.643308 C4.388802,6.470508 5.094122,7.112248 5.874022,7.605268 C5.974342,7.669068 6.075322,7.719448 6.175642,7.769828 C6.261002,7.812508 6.341962,7.852988 6.410162,7.895228 L6.424022,7.903148 C6.430402,7.907548 6.437222,7.911508 6.443602,7.914588 C6.532482,7.959028 6.618722,7.980808 6.707162,7.980808 C6.930242,7.980808 7.067742,7.843308 7.112842,7.798208 L7.938282,6.972768 C8.013522,6.897528 8.131002,6.807768 8.263882,6.807768 C8.405562,6.807768 8.516882,6.906768 8.577382,6.972768 L9.907502,8.302888 C10.127502,8.520688 10.133222,8.737388 9.924442,8.964648 L9.904862,8.965088 L9.896722,8.993908 C9.823022,9.072888 9.747562,9.146148 9.667922,9.223148 L9.616222,9.273748 C9.462002,9.420708 9.298542,9.581308 9.148062,9.758628 M10.448482,7.768508 L9.123862,6.439048 C8.878122,6.183628 8.582442,6.048548 8.268722,6.048548 C7.956762,6.048548 7.658002,6.182528 7.404562,6.436188 L6.670422,7.167908 C6.644022,7.153828 6.617402,7.140408 6.591222,7.126768 L6.519282,7.089588 C6.433922,7.046908 6.352962,7.006428 6.285202,6.964628 C5.575482,6.513628 4.930002,5.925348 4.312462,5.166568 C4.024922,4.803128 3.829782,4.498868 3.684362,4.186028 C3.853542,4.029608 4.012162,3.868568 4.165942,3.712588 L4.216542,3.661108 C4.251962,3.625908 4.287162,3.589828 4.322582,3.553748 L4.419162,3.456068 C4.678542,3.196908 4.815602,2.894628 4.815602,2.582008 C4.815602,2.269388 4.678542,1.967108 4.419162,1.707948 L3.755642,1.044428 C3.682822,0.971608 3.607582,0.896588 3.536522,0.820468 C3.394182,0.673288 3.240182,0.516868 3.082002,0.370788 C2.836922,0.128348 2.543882,8.8e-05 2.234782,8.8e-05 C1.925022,8.8e-05 1.628022,0.128128 1.370182,0.376068 L0.549802,1.203488 C0.231242,1.522048 0.049742,1.911008 0.010142,2.360248 C-0.048598,3.073928 0.160182,3.737668 0.322322,4.174808 C0.717002,5.239388 1.306602,6.223008 2.178022,7.270648 C3.241282,8.540268 4.519922,9.541488 5.978742,10.246588 C6.541282,10.513448 7.293242,10.826288 8.130122,10.879748 C8.179842,10.881948 8.231322,10.884368 8.278402,10.884368 C8.852602,10.884368 9.334622,10.677128 9.714122,10.264408 L9.723142,10.253628 C9.837982,10.114368 9.970422,9.986548 10.110342,9.851248 L10.141142,9.821548 C10.220342,9.745868 10.339582,9.631028 10.456402,9.508488 C10.705002,9.249988 10.836342,8.948148 10.836342,8.635528 C10.836342,8.319608 10.702142,8.019748 10.448482,7.768508" id="Fill-1" fill="#60C1D8" mask="url(#mask-2)"></path>
                </g>
            </g>
        </g>
    </g>
</svg>