<?xml version="1.0" encoding="UTF-8"?>
<svg width="226px" height="226px" viewBox="0 0 226 226" version="1.1" xmlns="http://www.w3.org/2000/svg" xmlns:xlink="http://www.w3.org/1999/xlink">
    <!-- Generator: Sketch 58 (84663) - https://sketch.com -->
    <title>icons-02</title>
    <desc>Created with Sketch.</desc>
    <g id="icons-02" stroke="none" stroke-width="1" fill="none" fill-rule="evenodd">
        <g fill="#60C1D8" fill-rule="nonzero">
            <path d="M225.5,125.9 C225.5,115 216.6,106.1 205.7,106.1 L182.9,106.1 L175.2,90.6 C171.8,83.8 165,79.6 157.5,79.6 L68.1,79.6 C60.5,79.6 53.8,83.8 50.4,90.6 L42.7,106.1 L19.8,106.1 C8.9,106.1 0,115 0,125.9 C0,135.2 6.4,143 15,145.1 C14.1,147.3 13.6,149.8 13.6,152.3 L13.6,178.7 C13.6,187.3 19.1,194.7 26.8,197.4 L26.8,205.6 C26.8,216.5 35.7,225.4 46.6,225.4 L59.8,225.4 C70.7,225.4 79.6,216.5 79.6,205.6 L79.6,198.6 L145.7,198.6 L145.7,205.6 C145.7,216.5 154.6,225.4 165.5,225.4 L178.7,225.4 C189.6,225.4 198.5,216.5 198.5,205.6 L198.5,197.4 C206.2,194.7 211.7,187.3 211.7,178.7 L211.7,152.3 C211.7,149.7 211.2,147.3 210.3,145 C213.6,144.1 216.7,142.4 219.2,140 C223.3,136.3 225.5,131.3 225.5,125.9 Z M62.1,96.6 C63.2,94.3 65.5,92.9 68,92.9 L157.4,92.9 C159.9,92.9 162.2,94.3 163.3,96.6 C164.2,98.3 176.9,123.8 181.3,132.6 L44.2,132.6 C46.4,128.2 59.3,102.3 62.1,96.6 Z M19.8,119.3 L36,119.3 L29.4,132.5 L19.8,132.5 C16.2,132.5 13.2,129.5 13.2,125.9 C13.2,122.3 16.2,119.3 19.8,119.3 Z M66.5,205.6 C66.5,209.2 63.5,212.2 59.9,212.2 L46.7,212.2 C43.1,212.2 40.1,209.2 40.1,205.6 L40.1,198.6 L66.5,198.6 L66.5,205.6 Z M178.8,212.3 L165.6,212.3 C162,212.3 159,209.3 159,205.7 L159,198.7 L185.4,198.7 L185.4,205.7 C185.4,209.3 182.4,212.3 178.8,212.3 Z M192,185.4 L145.8,185.4 L145.8,165.6 C145.8,162 142.8,159 139.2,159 C135.6,159 132.6,162 132.6,165.6 L132.6,185.4 L119.4,185.4 L119.4,165.6 C119.4,162 116.4,159 112.8,159 C109.2,159 106.2,162 106.2,165.6 L106.2,185.4 L92.9,185.4 L92.9,165.6 C92.9,162 89.9,159 86.3,159 C82.7,159 79.7,162 79.7,165.6 L79.7,185.4 L33.5,185.4 C29.9,185.4 26.9,182.4 26.9,178.8 L26.9,172.2 L46.7,172.2 C50.3,172.2 53.3,169.2 53.3,165.6 C53.3,162 50.3,159 46.7,159 L26.9,159 L26.9,152.4 C26.9,148.8 29.9,145.8 33.5,145.8 L192,145.8 C195.6,145.8 198.6,148.8 198.6,152.4 L198.6,159 L178.8,159 C175.2,159 172.2,162 172.2,165.6 C172.2,169.2 175.2,172.2 178.8,172.2 L198.6,172.2 L198.6,178.8 C198.6,182.4 195.6,185.4 192,185.4 Z M205.2,132.5 L196.1,132.5 L189.5,119.3 L205.7,119.3 C209.3,119.3 212.3,122.3 212.3,125.9 C212.3,129.5 209,132.5 205.2,132.5 Z" id="Shape"></path>
            <path d="M46.7,66.1 L86.3,66.1 C94.9,66.1 102.3,60.6 105,52.9 L178.8,52.9 C180.6,52.9 182.2,52.2 183.5,51 L196.7,37.8 C199.3,35.2 199.3,31 196.7,28.5 L183.5,15.3 C182.3,14.1 180.6,13.4 178.8,13.4 L105,13.4 C102.3,5.5 94.9,0 86.3,0 L59.9,0 C41.7,0 26.9,14.8 26.9,33 L26.9,46.2 C26.9,57.2 35.8,66.1 46.7,66.1 Z M182.7,33 L176.1,39.6 L106.2,39.6 L106.2,26.4 L176,26.4 L182.7,33 Z M40.1,33 C40.1,22.1 49,13.2 59.9,13.2 L86.3,13.2 C89.9,13.2 92.9,16.2 92.9,19.8 L92.9,46.2 C92.9,49.8 89.9,52.8 86.3,52.8 L46.7,52.8 C43.1,52.8 40.1,49.8 40.1,46.2 L40.1,33 Z" id="Shape"></path>
            <path d="M66.5,33 C66.5,36.6 63.5,39.6 59.9,39.6 C56.3,39.6 53.3,36.6 53.3,33 C53.3,29.4 56.3,26.4 59.9,26.4 C63.5,26.4 66.5,29.4 66.5,33 Z" id="Path"></path>
        </g>
    </g>
</svg>