<?xml version="1.0" encoding="UTF-8"?>
<svg width="49px" height="47px" viewBox="0 0 49 47" version="1.1" xmlns="http://www.w3.org/2000/svg" xmlns:xlink="http://www.w3.org/1999/xlink">
    <!-- Generator: Sketch 59.1 (86144) - https://sketch.com -->
    <title>cargo-ship</title>
    <desc>Created with Sketch.</desc>
    <g id="Symbols" stroke="none" stroke-width="1" fill="none" fill-rule="evenodd">
        <g id="Services" transform="translate(-1051.000000, -3.000000)" fill="#53B3CB" fill-rule="nonzero">
            <g id="Group-10-Copy" transform="translate(1023.000000, 3.000000)">
                <g id="cargo-ship" transform="translate(28.000000, 0.000000)">
                    <path d="M48.9971454,27.3293952 C49.0162849,27.0986721 48.9385306,26.8703692 48.7834209,26.7001504 C48.6279123,26.5299316 48.409403,26.4339314 48.1805263,26.4347382 L45.730669,26.4347382 L45.730669,12.391285 C45.730669,11.9346791 45.3650247,11.5651995 44.91405,11.5651995 L40.0143354,11.5651995 L40.0143354,4.9565156 C40.0143354,4.49990976 39.6486911,4.13043012 39.1977163,4.13043012 L27.7650491,4.13043012 C27.3140743,4.13043012 26.94843,4.49990976 26.94843,4.9565156 L26.94843,11.5651995 L22.0487154,11.5651995 C21.5977407,11.5651995 21.2320963,11.9346791 21.2320963,12.391285 L21.2320963,26.4347382 L20.4154773,26.4347382 L20.4154773,0.826088188 C20.4154773,0.369482344 20.0498329,1.34766997e-06 19.5988582,1.34766997e-06 L15.447977,1.34766997e-06 C15.2282713,-0.000400652423 15.0181355,0.0891456922 14.8642219,0.248070392 C14.7107071,0.406591653 14.6265729,0.621180265 14.6313579,0.843432782 L14.6991436,4.14777471 L14.6991436,9.08694302 L9.79942908,9.08694302 C9.44813935,9.08694302 9.13632479,9.31443922 9.02507636,9.65164989 L7.57804969,14.0434559 L7.34957181,14.0434559 C7.04014973,14.0430526 6.75704443,14.2201284 6.6186818,14.5000618 L2.76167184,22.3043107 L0.81661909,22.3043107 C0.365644362,22.3043107 0,22.6737904 0,23.1303962 L0,25.6086527 C0.0861277947,29.1009614 1.4829133,32.4291016 3.90685251,34.9174421 C2.81151429,35.8447715 1.42788716,36.3509909 0,36.347764 L0,37.9999677 C1.78635426,38.0051786 3.51927734,37.3803708 4.89971454,36.2336125 C6.36508329,37.4408751 8.21722959,38.0632627 10.1056612,37.9833971 L10.1204146,37.9833971 C11.7939255,37.9184557 13.4016443,37.3041354 14.6991436,36.2328058 C17.5521268,38.5840032 21.6455895,38.5840032 24.4985727,36.2328058 C27.3515559,38.5840032 31.4450186,38.5840032 34.2980018,36.2328058 C37.150985,38.5840032 41.2444476,38.5840032 44.0974309,36.2328058 C45.4778681,37.3799675 47.2103924,38.0047753 48.9971454,37.9999677 L48.9971454,36.347764 C48.7487305,36.3461505 48.5011131,36.3292094 48.2546919,36.2973437 L48.9971454,27.3293952 Z M46.651758,35.8774439 C45.9858625,35.5950903 45.3749932,35.1949552 44.8478591,34.695593 L46.7490504,34.695593 L46.651758,35.8774439 Z M34.2980018,20.6521398 L44.0974309,20.6521398 L44.0974309,26.4347382 L34.2980018,26.4347382 L34.2980018,20.6521398 Z M44.0974309,18.9999688 L34.2980018,18.9999688 L34.2980018,13.2173704 L44.0974309,13.2173704 L44.0974309,18.9999688 Z M28.5816682,5.78260109 L38.3810972,5.78260109 L38.3810972,11.5651995 L28.5816682,11.5651995 L28.5816682,5.78260109 Z M22.8653345,13.2173704 L32.6647636,13.2173704 L32.6647636,18.9999688 L22.8653345,18.9999688 L22.8653345,13.2173704 Z M22.8653345,20.6521398 L32.6647636,20.6521398 L32.6647636,26.4347382 L22.8653345,26.4347382 L22.8653345,20.6521398 Z M18.7822391,1.65217367 L18.7822391,3.30434464 L16.315236,3.30434464 L16.2809444,1.65217367 L18.7822391,1.65217367 Z M16.3323818,4.9565156 L18.7822391,4.9565156 L18.7822391,9.08694302 L16.3323818,9.08694302 L16.3323818,4.9565156 Z M9.57174864,13.2173704 L13.0659054,13.2173704 L13.0659054,11.5651995 L10.1156297,11.5651995 L10.3883677,10.739114 L18.7822391,10.739114 L18.7822391,14.0434559 L9.29980815,14.0434559 L9.57174864,13.2173704 Z M5.8152211,19.8260543 L11.4326673,19.8260543 L11.4326673,18.1738833 L6.6294477,18.1738833 L7.85437633,15.6956269 L18.7822391,15.6956269 L18.7822391,26.4347382 L15.1612831,26.4347382 L12.9490747,22.7048492 C12.8015409,22.4563782 12.5359803,22.3043107 12.2492864,22.3043107 L4.58789997,22.3043107 L5.8152211,19.8260543 Z M1.63323818,23.9564817 L11.7871469,23.9564817 L13.9993553,27.6859672 C14.146889,27.9344382 14.4124497,28.0865058 14.6991436,28.0869091 L47.2929316,28.0869091 L46.8846221,33.043422 L4.42042936,33.043422 C2.68032882,30.9588469 1.69703655,28.3357835 1.63323818,25.6086527 L1.63323818,23.9564817 Z M6.20638481,34.7641646 C6.17847307,34.7431897 6.15414987,34.7169712 6.12464318,34.695593 L13.9479179,34.695593 C12.9115931,35.6685023 11.5722262,36.2457134 10.1602886,36.3267891 C8.72203412,36.1981166 7.34997053,35.6555947 6.20638481,34.7641646 Z M15.4503694,34.695593 L23.7473469,34.695593 C21.4051494,36.8854456 17.792567,36.8854456 15.4503694,34.695593 Z M25.2497985,34.695593 L33.546776,34.695593 C31.2045784,36.8854456 27.591996,36.8854456 25.2497985,34.695593 Z M35.0492275,34.695593 L43.3462051,34.695593 C41.0040075,36.8854456 37.3914251,36.8854456 35.0492275,34.695593 Z" id="Shape"></path>
                    <polygon id="Path" points="15 11 17 11 17 13 15 13"></polygon>
                    <polygon id="Path" points="13 18 17 18 17 20 13 20"></polygon>
                    <path d="M44.1,38 L43.5225911,38.5772903 C41.1324057,40.9574166 37.2675943,40.9574166 34.8774089,38.5772903 L34.3,38 L33.7225911,38.5772903 C31.3324056,40.9574166 27.4675943,40.9574166 25.0774089,38.5772903 L24.5,38 L23.9225911,38.5772903 C21.5324057,40.9574166 17.6675944,40.9574166 15.2774089,38.5772903 L14.7,38 L14.1225911,38.5772903 C11.7324057,40.9574166 7.86759435,40.9574166 5.47740885,38.5772903 L4.9,38 L4.32259115,38.5772903 C3.17854006,39.7270866 1.62216797,40.3713553 0,40.3669698 L0,42 C1.78645833,42.0051504 3.51908363,41.3879922 4.9,40.2549404 C7.75394691,42.5772579 11.8460531,42.5772579 14.7,40.2549404 C17.5531494,42.5788526 21.6468506,42.5788526 24.5,40.2549404 C27.3531494,42.5788526 31.4468506,42.5788526 34.3,40.2549404 C37.1531494,42.5788526 41.2468506,42.5788526 44.1,40.2549404 C45.4809164,41.3879922 47.2135417,42.0051504 49,42 L49,40.3669698 C47.377832,40.3713553 45.8214599,39.7270866 44.6774089,38.5772903 L44.1,38 Z" id="Path"></path>
                    <path d="M44.1,43 L43.5225911,43.5772903 C41.1324057,45.9574166 37.2675943,45.9574166 34.8774089,43.5772903 L34.3,43 L33.7225911,43.5772903 C31.3324056,45.9574166 27.4675943,45.9574166 25.0774089,43.5772903 L24.5,43 L23.9225911,43.5772903 C21.5324057,45.9574166 17.6675944,45.9574166 15.2774089,43.5772903 L14.7,43 L14.1225911,43.5772903 C11.7324057,45.9574166 7.86759435,45.9574166 5.47740885,43.5772903 L4.9,43 L4.32259115,43.5772903 C3.17854006,44.7270866 1.62216797,45.3713553 0,45.3669698 L0,47 C1.78645833,47.0051504 3.51908363,46.3879922 4.9,45.2549404 C7.75394691,47.5772579 11.8460531,47.5772579 14.7,45.2549404 C17.5531494,47.5788526 21.6468506,47.5788526 24.5,45.2549404 C27.3531494,47.5788526 31.4468506,47.5788526 34.3,45.2549404 C37.1531494,47.5788526 41.2468506,47.5788526 44.1,45.2549404 C45.4809164,46.3879922 47.2135417,47.0051504 49,47 L49,45.3669698 C47.377832,45.3713553 45.8214599,44.7270866 44.6774089,43.5772903 L44.1,43 Z" id="Path"></path>
                    <polygon id="Path" points="29 8 31 8 31 10 29 10"></polygon>
                    <polygon id="Path" points="32 8 34 8 34 10 32 10"></polygon>
                    <polygon id="Path" points="36 8 38 8 38 10 36 10"></polygon>
                    <polygon id="Path" points="23 15 25 15 25 17 23 17"></polygon>
                    <polygon id="Path" points="27 15 29 15 29 17 27 17"></polygon>
                    <polygon id="Path" points="30 15 32 15 32 17 30 17"></polygon>
                    <polygon id="Path" points="35 15 37 15 37 17 35 17"></polygon>
                    <polygon id="Path" points="38 15 40 15 40 17 38 17"></polygon>
                    <polygon id="Path" points="41 15 43 15 43 17 41 17"></polygon>
                    <polygon id="Path" points="35 22 37 22 37 24 35 24"></polygon>
                    <polygon id="Path" points="38 22 40 22 40 24 38 24"></polygon>
                    <polygon id="Path" points="41 22 43 22 43 24 41 24"></polygon>
                    <polygon id="Path" points="23 22 25 22 25 24 23 24"></polygon>
                    <polygon id="Path" points="27 22 29 22 29 24 27 24"></polygon>
                    <polygon id="Path" points="30 22 32 22 32 24 30 24"></polygon>
                    <path d="M5.5,29 C6.88061521,29 8,27.8806152 8,26.5 C8,25.1189778 6.88061521,24 5.5,24 C4.11938479,24 3,25.1189778 3,26.5 C3,27.8806152 4.11938479,29 5.5,29 Z M5.5,25.6666667 C5.9602051,25.6666667 6.33333333,26.039388 6.33333333,26.5 C6.33333333,26.9602051 5.9602051,27.3333333 5.5,27.3333333 C5.0397949,27.3333333 4.66666667,26.9602051 4.66666667,26.5 C4.66666667,26.039388 5.0397949,25.6666667 5.5,25.6666667 Z" id="Shape"></path>
                </g>
            </g>
        </g>
    </g>
</svg>