<?xml version="1.0" encoding="UTF-8"?>
<svg width="24px" height="24px" viewBox="0 0 24 24" version="1.1" xmlns="http://www.w3.org/2000/svg" xmlns:xlink="http://www.w3.org/1999/xlink">
    <!-- Generator: Sketch 59.1 (86144) - https://sketch.com -->
    <title>Tick</title>
    <desc>Created with Sketch.</desc>
    <defs>
        <polygon id="path-1" points="9.4302554e-06 4.70588235e-06 23.9805265 4.70588235e-06 23.9805265 24 9.4302554e-06 24"></polygon>
    </defs>
    <g id="Symbols" stroke="none" stroke-width="1" fill="none" fill-rule="evenodd">
        <g id="Icon-Tick" transform="translate(-19.000000, -19.000000)">
            <g id="Tick" transform="translate(19.000000, 19.000000)">
                <mask id="mask-2" fill="white">
                    <use xlink:href="#path-1"></use>
                </mask>
                <g id="Clip-2"></g>
                <path d="M22.777556,12 C22.1648251,12 21.6510177,12.46 21.5828841,13.0677647 C21.046444,17.8501647 16.9524872,21.6 12.0235756,21.6 C6.73320236,21.6 2.40471513,17.28 2.40471513,12 C2.40471513,6.72 6.73320236,2.4 12.0235756,2.4 C12.7484322,2.4 13.4050609,2.46814118 14.0448094,2.60442353 C14.443002,2.68927059 14.8573674,2.57171765 15.1453202,2.28437647 C15.8124165,1.61858824 15.4777839,0.474588235 14.5545147,0.280847059 C13.7237564,0.106494118 12.873666,0 12.0235756,0 C5.41060904,0 9.37916411e-13,5.4 9.37916411e-13,12 C9.37916411e-13,18.6 5.41060904,24 12.0235756,24 C18.1854931,24 23.3034813,19.3114824 23.9729823,13.3323765 C24.0525265,12.6216941 23.4940668,12 22.777556,12 M6.25225933,10.56 L6.25225933,10.56 C5.78739489,11.0239059 5.78739489,11.7760941 6.25225933,12.24 L10.3239136,16.3036706 C10.5985697,16.5777412 11.0438664,16.5777412 11.3185226,16.3036706 L21.0815246,6.55981176 C21.546389,6.09585882 21.546389,5.34371765 21.0815246,4.87976471 C20.6167073,4.41585882 19.8630413,4.41585882 19.398224,4.87976471 L11.1249194,13.1368941 C10.9572024,13.3042824 10.6852338,13.3042824 10.5175167,13.1368941 L7.93555992,10.56 C7.47074263,10.0960941 6.71707662,10.0960941 6.25225933,10.56" id="Fill-1" fill="#60C1D8" fill-rule="evenodd" mask="url(#mask-2)"></path>
            </g>
        </g>
    </g>
</svg>