<?xml version="1.0" encoding="UTF-8"?>
<svg width="43px" height="27px" viewBox="0 0 43 27" version="1.1" xmlns="http://www.w3.org/2000/svg" xmlns:xlink="http://www.w3.org/1999/xlink">
    <!-- Generator: Sketch 55 (78076) - https://sketchapp.com -->
    <title>noun_delivery_849035</title>
    <desc>Created with Sketch.</desc>
    <g id="Page-1" stroke="none" stroke-width="1" fill="none" fill-rule="evenodd">
        <g id="Home" transform="translate(-307.000000, -758.000000)" fill="#FFFFFF">
            <g id="noun_delivery_849035" transform="translate(307.000000, 758.000000)">
                <g id="Group">
                    <g transform="translate(0.000000, 0.296916)" fill-rule="nonzero">
                        <path d="M5.60869565,0.16860569 C5.09241522,0.16860569 4.67391304,0.585443793 4.67391304,1.09964017 C4.67391304,1.61383655 5.09241522,2.03067466 5.60869565,2.03067466 L28.9344663,2.03067466 L33.7982337,9.52257414 C33.9092859,9.68969483 34.0760048,9.81938793 34.265625,9.88628276 L41.1304348,12.4466276 L41.1304348,21.5824034 L38.296875,21.5824034 C38.0667311,19.4917655 36.2770907,17.8582655 34.1195652,17.8582655 C31.9620402,17.8582655 30.1723994,19.4917655 29.9422554,21.5824034 L17.7316576,21.5824034 C17.5015141,19.4917655 15.7118733,17.8582655 13.5543478,17.8582655 C11.3968228,17.8582655 9.60718199,19.4917655 9.37703804,21.5824034 L6.54347826,21.5824034 L6.54347826,15.9961966 C6.54347826,15.4819862 6.12497609,15.0651621 5.60869565,15.0651621 C5.09241522,15.0651621 4.67391304,15.4819862 4.67391304,15.9961966 L4.67391304,22.5134379 C4.67395978,23.0009276 5.11924348,23.4444259 5.60869565,23.4444724 L9.59615109,23.4444724 C10.178007,25.0664741 11.7344668,26.2375759 13.5543478,26.2375759 C15.3742298,26.2375759 16.9306891,25.0664741 17.5125913,23.4444724 L30.1613685,23.4444724 C30.7432244,25.0664741 32.2996842,26.2375759 34.1195652,26.2375759 C35.9394467,26.2375759 37.4959061,25.0664741 38.0778087,23.4444724 L42.0652174,23.4444724 C42.5546696,23.4444259 42.9999528,23.0009276 43,22.5134379 L43,11.8065414 C43,11.4284483 42.7430278,11.063669 42.3865489,10.9336966 L35.215037,8.25697241 L30.234375,0.59048069 C30.0641983,0.330996724 29.7568418,0.16659931 29.4456522,0.16860569 L5.60869565,0.16860569 Z M0.934782842,3.89274362 C0.418502408,3.89274362 2.33695652e-07,4.30958172 2.33695652e-07,4.8237781 C2.33695652e-07,5.33797448 0.418502408,5.75481724 0.934782842,5.75481724 L14.001782,5.75481724 C14.518062,5.75481724 14.9365646,5.33797448 14.9365646,4.8237781 C14.9365646,4.30958172 14.518062,3.89274362 14.001782,3.89274362 L0.934782842,3.89274362 Z M1.86956545,7.61688621 C1.35328502,7.61688621 0.934782842,8.03371034 0.934782842,8.54792069 C0.934782842,9.06213103 1.35328502,9.47895517 1.86956545,9.47895517 L14.001782,9.47895517 C14.518062,9.47895517 14.9365646,9.06213103 14.9365646,8.54792069 C14.9365646,8.03371034 14.518062,7.61688621 14.001782,7.61688621 L1.86956545,7.61688621 Z M3.73913043,11.3410241 C3.22285,11.3410241 2.80434783,11.7578483 2.80434783,12.2720586 C2.80434783,12.786269 3.22285,13.2030931 3.73913043,13.2030931 L14.001782,13.2030931 C14.518062,13.2030931 14.9365646,12.786269 14.9365646,12.2720586 C14.9365646,11.7578483 14.518062,11.3410241 14.001782,11.3410241 L3.73913043,11.3410241 Z M13.5543478,19.7203345 C14.8560793,19.7203345 15.8913043,20.7514086 15.8913043,22.0479207 C15.8913043,23.3444328 14.8560793,24.3755069 13.5543478,24.3755069 C12.2526163,24.3755069 11.2173913,23.3444328 11.2173913,22.0479207 C11.2173913,20.7514086 12.2526163,19.7203345 13.5543478,19.7203345 Z M34.1195652,19.7203345 C35.4212967,19.7203345 36.4565217,20.7514086 36.4565217,22.0479207 C36.4565217,23.3444328 35.4212967,24.3755069 34.1195652,24.3755069 C32.8178337,24.3755069 31.7826087,23.3444328 31.7826087,22.0479207 C31.7826087,20.7514086 32.8178337,19.7203345 34.1195652,19.7203345 Z" id="Shape"></path>
                    </g>
                </g>
            </g>
        </g>
    </g>
</svg>