<?xml version="1.0" encoding="UTF-8"?>
<svg width="35px" height="35px" viewBox="0 0 35 35" version="1.1" xmlns="http://www.w3.org/2000/svg" xmlns:xlink="http://www.w3.org/1999/xlink">
    <!-- Generator: Sketch 55 (78076) - https://sketchapp.com -->
    <title>Group 8</title>
    <desc>Created with Sketch.</desc>
    <defs>
        <polygon id="path-1" points="3.5735113e-06 0.0695273824 34.940595 0.0695273824 34.940595 34.9285714 3.5735113e-06 34.9285714"></polygon>
    </defs>
    <g id="Page-1" stroke="none" stroke-width="1" fill="none" fill-rule="evenodd">
        <g id="Home" transform="translate(-402.000000, -1800.000000)">
            <g id="Group-8" transform="translate(402.000000, 1800.000000)">
                <g>
                    <path d="M12.7317505,13.0831286 C13.5550177,13.0831286 14.2223559,13.7354857 14.2223559,14.5402714 C14.2223559,15.3450571 13.5550177,15.9974143 12.7317505,15.9974143 C11.9084833,15.9974143 11.2412182,15.3450571 11.2412182,14.5402714 C11.2412182,13.7354857 11.9084833,13.0831286 12.7317505,13.0831286" id="Fill-1" fill="#F7A9B2"></path>
                    <path d="M22.2015157,18.9974 C23.0247829,18.9974 23.692048,19.6497571 23.692048,20.4545429 C23.692048,21.2593286 23.0247829,21.9116857 22.2015157,21.9116857 C21.3782484,21.9116857 20.7109102,21.2593286 20.7109102,20.4545429 C20.7109102,19.6497571 21.3782484,18.9974 22.2015157,18.9974" id="Fill-3" fill="#F7A9B2"></path>
                    <g id="Group-7" transform="translate(0.000000, 0.001929)">
                        <mask id="mask-2" fill="white">
                            <use xlink:href="#path-1"></use>
                        </mask>
                        <g id="Clip-6"></g>
                        <path d="M22.2015157,23.9669071 C20.2140418,23.9669071 18.6065261,22.3954786 18.6065261,20.4526214 C18.6065261,18.5097643 20.2140418,16.9383357 22.2015157,16.9383357 C24.1889896,16.9383357 25.7965052,18.5097643 25.7965052,20.4526214 C25.7965052,22.3954786 24.1889896,23.9669071 22.2015157,23.9669071 L22.2015157,23.9669071 Z M13.4186347,23.6026214 C13.1117453,23.9669071 12.5564217,24.0169071 12.1836973,23.7169071 C11.811119,23.4169071 11.7599708,22.87405 12.0668601,22.5097643 L21.5000543,11.4026214 C21.8069436,11.0383357 22.3622672,10.9883357 22.7349186,11.2883357 C23.1075699,11.5883357 23.1587182,12.1311929 22.8518288,12.4954786 L13.4186347,23.6026214 Z M9.12949061,14.5383357 C9.12949061,12.5954786 10.7370063,11.02405 12.7244802,11.02405 C14.7119541,11.02405 16.3194697,12.5954786 16.3194697,14.5383357 C16.3194697,16.4811929 14.7119541,18.0526214 12.7244802,18.0526214 C10.7370063,18.0526214 9.12949061,16.47405 9.12949061,14.5383357 L9.12949061,14.5383357 Z M34.4917035,19.42405 L33.9509937,18.7026214 C33.3664426,17.9169071 33.3518288,16.8526214 33.9290731,16.0526214 L34.4551691,15.32405 C35.2589269,14.2097643 34.8862756,12.6597643 33.6514113,12.0097643 L32.8476534,11.5883357 C31.9708267,11.1311929 31.488572,10.17405 31.6566305,9.20976429 L31.8100752,8.33119286 C32.0438956,6.98833571 31.0136242,5.74547857 29.6180084,5.68833571 L28.7046472,5.65262143 C27.7109102,5.60976429 26.8486973,4.95262143 26.5710355,4.01690714 L26.3152944,3.15976429 C25.9280292,1.84547857 24.4520376,1.16690714 23.1660251,1.70976429 L22.3257328,2.05976429 C21.4123716,2.44547857 20.3455658,2.21690714 19.6806388,1.48833571 L19.074167,0.82405 C18.1461921,-0.190235714 16.5167557,-0.183092857 15.5960877,0.852621429 L14.9969228,1.52405 C14.3393027,2.25976429 13.2798038,2.50262143 12.3591357,2.13119286 L11.5115365,1.78833571 C10.2182171,1.26690714 8.75683925,1.97405 8.38418789,3.28833571 L8.14306054,4.15262143 C7.88001253,5.09547857 7.03241336,5.76690714 6.03867641,5.81690714 L5.12531524,5.86690714 C3.72969937,5.94547857 2.72134864,7.20262143 2.97708977,8.54547857 L3.14514823,9.42405 C3.32782046,10.3811929 2.86017954,11.3454786 1.99065971,11.8169071 L1.19420877,12.2526214 C-0.0260417537,12.9169071 -0.376772443,14.47405 0.448906054,15.57405 L0.989615866,16.2954786 C1.57416701,17.0811929 1.58878079,18.1454786 1.01153653,18.9454786 L0.485440501,19.67405 C-0.318317328,20.7883357 0.0543340292,22.3383357 1.28919833,22.9883357 L2.09295616,23.4097643 C2.96978288,23.8669071 3.45203758,24.82405 3.28397912,25.7883357 L3.13053445,26.6669071 C2.89671399,28.0097643 3.92698539,29.2526214 5.32260125,29.3097643 L6.23596242,29.3454786 C7.22969937,29.3883357 8.09191232,30.0454786 8.36957411,30.9811929 L8.62531524,31.8383357 C9.01258038,33.1526214 10.488572,33.8311929 11.7745846,33.2883357 L12.6148768,32.9383357 C13.528238,32.5526214 14.5950438,32.7811929 15.2599708,33.5097643 L15.8664426,34.17405 C16.8017244,35.1883357 18.4311608,35.1811929 19.3445219,34.1454786 L19.9436868,33.47405 C20.6013069,32.7383357 21.6608058,32.4954786 22.5814739,32.8669071 L23.4290731,33.2097643 C24.7223925,33.7311929 26.1837704,33.02405 26.5564217,31.7097643 L26.7975491,30.8454786 C27.0605971,29.9026214 27.9081962,29.2311929 28.9019332,29.1811929 L29.8152944,29.1311929 C31.2109102,29.0526214 32.219261,27.7954786 31.9635198,26.4526214 L31.7954614,25.57405 C31.6127891,24.6169071 32.0804301,23.6526214 32.9499499,23.1811929 L33.7464008,22.7454786 C34.9666514,22.0883357 35.317382,20.5311929 34.4917035,19.42405 L34.4917035,19.42405 Z" id="Fill-5" fill="#F7A9B2" mask="url(#mask-2)"></path>
                    </g>
                </g>
            </g>
        </g>
    </g>
</svg>