<?xml version="1.0" encoding="UTF-8"?>
<svg width="47px" height="47px" viewBox="0 0 47 47" version="1.1" xmlns="http://www.w3.org/2000/svg" xmlns:xlink="http://www.w3.org/1999/xlink">
    <!-- Generator: Sketch 59.1 (86144) - https://sketch.com -->
    <title>electricity</title>
    <desc>Created with Sketch.</desc>
    <g id="Symbols" stroke="none" stroke-width="1" fill="none" fill-rule="evenodd">
        <g id="Services" transform="translate(-724.000000, -3.000000)" fill="#53B3CB" fill-rule="nonzero">
            <g id="Group-10-Copy" transform="translate(724.000000, 3.000000)">
                <g id="electricity">
                    <path d="M30.195141,18.735308 L25.3295104,18.735308 L30.1154093,11.1911612 C30.2749677,10.9529289 30.2749677,10.6353175 30.1154093,10.3970853 C29.9558508,10.158853 29.7165606,10 29.3975387,10 L23.0163402,10 C22.6973183,10 22.4580281,10.158853 22.2984696,10.3970853 L15.1196689,23.102962 C14.9601104,23.3411943 14.9601104,23.6588057 15.1196689,23.897038 C15.2792273,24.1352702 15.5185175,24.2941232 15.8375394,24.2941232 L19.9852994,24.2941232 L15.1196689,35.9676919 C14.9601104,36.2853033 15.1196689,36.6823886 15.4386908,36.9206208 C15.5184225,37 15.677981,37 15.8375394,37 C16.0768296,37 16.3161198,36.9206208 16.4756783,36.7617678 L30.8332799,20.0853222 C30.9928383,19.84709 31.07257,19.5294785 30.9130116,19.2117725 C30.7534531,18.8940664 30.5142579,18.735308 30.195141,18.735308 Z M18.4698266,31.8381755 L21.8199843,23.7381849 C21.899716,23.4999527 21.899716,23.2617205 21.7402526,23.0234882 C21.5806941,22.8646352 21.3414039,22.7058768 21.1021137,22.7058768 L17.1936439,22.7058768 L23.4151889,11.5882464 L27.8819708,11.5882464 L23.0960719,19.1323933 C22.9365135,19.3706255 22.9365135,19.688237 23.0960719,19.9264692 C23.2556304,20.1647014 23.4949206,20.3235545 23.8139425,20.3235545 L28.4402829,20.3235545 L18.4698266,31.8381755 Z" id="Shape"></path>
                    <path d="M42.299972,0 L4.700028,0 C2.1149706,0 0,2.1149706 0,4.700028 L0,42.299972 C0,44.8849361 2.1149706,47 4.700028,47 L42.299972,47 C44.8849361,47 47,44.8850294 47,42.299972 L47,4.700028 C47,2.1149706 44.8849361,0 42.299972,0 Z M45.433324,42.299972 C45.433324,44.0233436 44.0233436,45.433324 42.299972,45.433324 L4.700028,45.433324 C2.9766564,45.433324 1.566676,44.0233436 1.566676,42.299972 L1.566676,4.700028 C1.566676,2.9766564 2.9766564,1.566676 4.700028,1.566676 L42.299972,1.566676 C44.0233436,1.566676 45.433324,2.9766564 45.433324,4.700028 L45.433324,42.299972 Z" id="Shape"></path>
                    <path d="M23,4 C12.5500613,4 4,12.549967 4,23 C4,33.450033 12.549967,42 23,42 C33.450033,42 42,33.450033 42,23 C42,12.549967 33.450033,4 23,4 Z M23,40.4165645 C13.4208188,40.4165645 5.58334119,32.5790869 5.58334119,22.9999057 C5.58334119,13.4207245 13.4209131,5.58334119 23,5.58334119 C32.5790869,5.58334119 40.4166588,13.4208188 40.4166588,23 C40.4166588,32.5791812 32.5791812,40.4165645 23,40.4165645 Z" id="Shape"></path>
                    <path d="M4.5,6 C5.3250134,6 6,5.3250134 6,4.5 C6,3.6749866 5.3250134,3 4.5,3 C3.6749866,3 3,3.6749866 3,4.5 C3,5.3250134 3.6749866,6 4.5,6 Z" id="Path"></path>
                    <path d="M4.5,41 C3.6749866,41 3,41.6749866 3,42.5 C3,43.3250134 3.6749866,44 4.5,44 C5.3250134,44 6,43.3250134 6,42.5 C6,41.6749866 5.32492405,41 4.5,41 Z" id="Path"></path>
                    <path d="M42.5,3 C41.6749866,3 41,3.6749866 41,4.5 C41,5.3250134 41.6749866,6 42.5,6 C43.3250134,6 44,5.3250134 44,4.5 C44,3.6749866 43.3250134,3 42.5,3 Z" id="Path"></path>
                    <path d="M42.5,41 C41.6749866,41 41,41.6749866 41,42.5 C41,43.3250134 41.6749866,44 42.5,44 C43.3250134,44 44,43.3250134 44,42.5 C44,41.6749866 43.3250134,41 42.5,41 Z" id="Path"></path>
                </g>
            </g>
        </g>
    </g>
</svg>