<?xml version="1.0" encoding="UTF-8"?>
<svg width="14px" height="10px" viewBox="0 0 14 10" version="1.1" xmlns="http://www.w3.org/2000/svg" xmlns:xlink="http://www.w3.org/1999/xlink">
    <!-- Generator: Sketch 58 (84663) - https://sketch.com -->
    <title>env</title>
    <desc>Created with Sketch.</desc>
    <defs>
        <polygon id="path-1" points="0 -6.81818182e-05 13.8608931 -6.81818182e-05 13.8608931 9.94104545 0 9.94104545"></polygon>
    </defs>
    <g id="Symbols" stroke="none" stroke-width="1" fill="none" fill-rule="evenodd">
        <g id="Footer" transform="translate(-750.000000, -474.000000)">
            <g id="env" transform="translate(750.000000, 474.000000)">
                <g id="Group-3">
                    <mask id="mask-2" fill="white">
                        <use xlink:href="#path-1"></use>
                    </mask>
                    <g id="Clip-2"></g>
                    <path d="M13.0486517,8.63561364 L9.15616897,4.97061364 L13.0486517,1.30538636 L13.0486517,8.63561364 Z M1.38641034,9.17629545 L5.30013448,5.49129545 L6.67165172,6.77152273 C6.83047931,6.91947727 7.08658276,6.91902273 7.24468621,6.77015909 L8.58192759,5.51129545 L12.4744103,9.17629545 L1.38641034,9.17629545 Z M0.812168966,8.63561364 L0.812168966,1.30152273 L4.72347931,4.95288636 L0.812168966,8.63561364 Z M12.4744103,0.764704545 L6.95623793,5.96038636 L1.39051379,0.764704545 L12.4744103,0.764704545 Z M12.6426517,-6.81818182e-05 L1.21816897,-6.81818182e-05 C0.547375862,-6.81818182e-05 -7.24137931e-05,0.514931818 -7.24137931e-05,1.14697727 L-7.24137931e-05,8.79402273 C-7.24137931e-05,9.42425 0.544962069,9.94106818 1.21816897,9.94106818 L12.6426517,9.94106818 C13.3117552,9.94106818 13.8608931,9.42788636 13.8608931,8.79402273 L13.8608931,1.14697727 C13.8608931,0.51675 13.3158586,-6.81818182e-05 12.6426517,-6.81818182e-05 L12.6426517,-6.81818182e-05 Z" id="Fill-1" fill="#60C1D8" mask="url(#mask-2)"></path>
                </g>
            </g>
        </g>
    </g>
</svg>