<?xml version="1.0" encoding="UTF-8"?>
<svg width="738px" height="20px" viewBox="0 0 738 20" version="1.1" xmlns="http://www.w3.org/2000/svg" xmlns:xlink="http://www.w3.org/1999/xlink">
    <!-- Generator: Sketch 55 (78076) - https://sketchapp.com -->
    <title>Group 14</title>
    <desc>Created with Sketch.</desc>
    <g id="Welcome" stroke="none" stroke-width="1" fill="none" fill-rule="evenodd">
        <g id="Desktop-HD" transform="translate(-550.000000, -2961.000000)" fill="#FFF3E6">
            <g id="Group-8" transform="translate(158.000000, 2512.000000)">
                <g id="Group-14" transform="translate(392.000000, 449.000000)">
                    <path d="M45,12 C43.8955,12 43,11.104 43,10 C43,8.895 43.8955,8 45,8 C46.1047,8 47,8.895 47,10 C47,11.104 46.1047,12 45,12 Z M58.3436732,8.68526786 C57.897722,8.33035714 47.2510946,0 33.8916253,0 C22.4738116,0 13.0608384,6.07142857 10.2807102,8.06138393 L1.81650563,2.50334821 L0,5.30803571 L7.74412031,10.3928571 L0,15.4776786 L1.81650563,18.2823661 L10.860347,12.34375 C14.2222181,14.6484375 23.1770466,20 33.8916253,20 C47.2510946,20 57.8966135,11.6696429 58.3436732,11.3147321 L60,10 L58.3436732,8.68526786 L58.3436732,8.68526786 Z" id="Fill-20"></path>
                    <path d="M142.647742,15 C139.655742,15 138.173935,12.6914286 137.193161,11.1628571 C136.273419,9.73285714 135.894452,9.28571429 135.311097,9.28571429 C134.732,9.28571429 134.354452,9.73142857 133.43471,11.1614286 C132.455355,12.69 130.973548,15 127.980129,15 C124.989548,15 123.509161,12.69 122.529806,11.1614286 C121.612903,9.73142857 121.233935,9.28571429 120.656258,9.28571429 C120.077161,9.28571429 119.698194,9.73142857 118.779871,11.1614286 C117.799097,12.69 116.320129,15 113.32671,15 C110.336129,15 108.854323,12.69 107.873548,11.1614286 C106.958065,9.73142857 106.579097,9.28571429 106,9.28571429 L106,5 C108.990581,5 110.472387,7.31 111.453161,8.83857143 C112.368645,10.2685714 112.747613,10.7142857 113.32671,10.7142857 C113.905806,10.7142857 114.284774,10.2685714 115.203097,8.83857143 C116.183871,7.31 117.664258,5 120.656258,5 C123.648258,5 125.128645,7.31 126.108,8.83857143 C127.024903,10.2685714 127.402452,10.7142857 127.980129,10.7142857 C128.562065,10.7142857 128.939613,10.2685714 129.859355,8.83857143 C130.83871,7.30857143 132.319097,5 135.311097,5 C138.305935,5 139.787742,7.30857143 140.768516,8.83857143 C141.688258,10.2685714 142.067226,10.7142857 142.647742,10.7142857 C143.229677,10.7142857 143.617161,10.2685714 144.536903,8.83714286 C145.517677,7.30857143 147.16129,5 150,5 L150,9.28571429 C150,9.28571429 149.032,9.73142857 148.112258,11.1614286 C147.131484,12.6914286 145.642581,15 142.647742,15" id="Fill-56"></path>
                    <path d="M241,12 C239.8955,12 239,11.104 239,10 C239,8.895 239.8955,8 241,8 C242.1047,8 243,8.895 243,10 C243,11.104 242.1047,12 241,12 Z M254.343673,8.68526786 C253.897722,8.33035714 243.251095,0 229.891625,0 C218.473812,0 209.060838,6.07142857 206.28071,8.06138393 L197.816506,2.50334821 L196,5.30803571 L203.74412,10.3928571 L196,15.4776786 L197.816506,18.2823661 L206.860347,12.34375 C210.222218,14.6484375 219.177047,20 229.891625,20 C243.251095,20 253.896614,11.6696429 254.343673,11.3147321 L256,10 L254.343673,8.68526786 L254.343673,8.68526786 Z" id="Fill-20"></path>
                    <path d="M338.647742,15 C335.655742,15 334.173935,12.6914286 333.193161,11.1628571 C332.273419,9.73285714 331.894452,9.28571429 331.311097,9.28571429 C330.732,9.28571429 330.354452,9.73142857 329.43471,11.1614286 C328.455355,12.69 326.973548,15 323.980129,15 C320.989548,15 319.509161,12.69 318.529806,11.1614286 C317.612903,9.73142857 317.233935,9.28571429 316.656258,9.28571429 C316.077161,9.28571429 315.698194,9.73142857 314.779871,11.1614286 C313.799097,12.69 312.320129,15 309.32671,15 C306.336129,15 304.854323,12.69 303.873548,11.1614286 C302.958065,9.73142857 302.579097,9.28571429 302,9.28571429 L302,5 C304.990581,5 306.472387,7.31 307.453161,8.83857143 C308.368645,10.2685714 308.747613,10.7142857 309.32671,10.7142857 C309.905806,10.7142857 310.284774,10.2685714 311.203097,8.83857143 C312.183871,7.31 313.664258,5 316.656258,5 C319.648258,5 321.128645,7.31 322.108,8.83857143 C323.024903,10.2685714 323.402452,10.7142857 323.980129,10.7142857 C324.562065,10.7142857 324.939613,10.2685714 325.859355,8.83857143 C326.83871,7.30857143 328.319097,5 331.311097,5 C334.305935,5 335.787742,7.30857143 336.768516,8.83857143 C337.688258,10.2685714 338.067226,10.7142857 338.647742,10.7142857 C339.229677,10.7142857 339.617161,10.2685714 340.536903,8.83714286 C341.517677,7.30857143 343.16129,5 346,5 L346,9.28571429 C346,9.28571429 345.032,9.73142857 344.112258,11.1614286 C343.131484,12.6914286 341.642581,15 338.647742,15" id="Fill-56"></path>
                    <path d="M437,12 C435.8955,12 435,11.104 435,10 C435,8.895 435.8955,8 437,8 C438.1047,8 439,8.895 439,10 C439,11.104 438.1047,12 437,12 Z M450.343673,8.68526786 C449.897722,8.33035714 439.251095,0 425.891625,0 C414.473812,0 405.060838,6.07142857 402.28071,8.06138393 L393.816506,2.50334821 L392,5.30803571 L399.74412,10.3928571 L392,15.4776786 L393.816506,18.2823661 L402.860347,12.34375 C406.222218,14.6484375 415.177047,20 425.891625,20 C439.251095,20 449.896614,11.6696429 450.343673,11.3147321 L452,10 L450.343673,8.68526786 L450.343673,8.68526786 Z" id="Fill-20"></path>
                    <path d="M534.647742,15 C531.655742,15 530.173935,12.6914286 529.193161,11.1628571 C528.273419,9.73285714 527.894452,9.28571429 527.311097,9.28571429 C526.732,9.28571429 526.354452,9.73142857 525.43471,11.1614286 C524.455355,12.69 522.973548,15 519.980129,15 C516.989548,15 515.509161,12.69 514.529806,11.1614286 C513.612903,9.73142857 513.233935,9.28571429 512.656258,9.28571429 C512.077161,9.28571429 511.698194,9.73142857 510.779871,11.1614286 C509.799097,12.69 508.320129,15 505.32671,15 C502.336129,15 500.854323,12.69 499.873548,11.1614286 C498.958065,9.73142857 498.579097,9.28571429 498,9.28571429 L498,5 C500.990581,5 502.472387,7.31 503.453161,8.83857143 C504.368645,10.2685714 504.747613,10.7142857 505.32671,10.7142857 C505.905806,10.7142857 506.284774,10.2685714 507.203097,8.83857143 C508.183871,7.31 509.664258,5 512.656258,5 C515.648258,5 517.128645,7.31 518.108,8.83857143 C519.024903,10.2685714 519.402452,10.7142857 519.980129,10.7142857 C520.562065,10.7142857 520.939613,10.2685714 521.859355,8.83857143 C522.83871,7.30857143 524.319097,5 527.311097,5 C530.305935,5 531.787742,7.30857143 532.768516,8.83857143 C533.688258,10.2685714 534.067226,10.7142857 534.647742,10.7142857 C535.229677,10.7142857 535.617161,10.2685714 536.536903,8.83714286 C537.517677,7.30857143 539.16129,5 542,5 L542,9.28571429 C542,9.28571429 541.032,9.73142857 540.112258,11.1614286 C539.131484,12.6914286 537.642581,15 534.647742,15" id="Fill-56"></path>
                    <path d="M633,12 C631.8955,12 631,11.104 631,10 C631,8.895 631.8955,8 633,8 C634.1047,8 635,8.895 635,10 C635,11.104 634.1047,12 633,12 Z M646.343673,8.68526786 C645.897722,8.33035714 635.251095,0 621.891625,0 C610.473812,0 601.060838,6.07142857 598.28071,8.06138393 L589.816506,2.50334821 L588,5.30803571 L595.74412,10.3928571 L588,15.4776786 L589.816506,18.2823661 L598.860347,12.34375 C602.222218,14.6484375 611.177047,20 621.891625,20 C635.251095,20 645.896614,11.6696429 646.343673,11.3147321 L648,10 L646.343673,8.68526786 L646.343673,8.68526786 Z" id="Fill-20"></path>
                    <path d="M730.647742,15 C727.655742,15 726.173935,12.6914286 725.193161,11.1628571 C724.273419,9.73285714 723.894452,9.28571429 723.311097,9.28571429 C722.732,9.28571429 722.354452,9.73142857 721.43471,11.1614286 C720.455355,12.69 718.973548,15 715.980129,15 C712.989548,15 711.509161,12.69 710.529806,11.1614286 C709.612903,9.73142857 709.233935,9.28571429 708.656258,9.28571429 C708.077161,9.28571429 707.698194,9.73142857 706.779871,11.1614286 C705.799097,12.69 704.320129,15 701.32671,15 C698.336129,15 696.854323,12.69 695.873548,11.1614286 C694.958065,9.73142857 694.579097,9.28571429 694,9.28571429 L694,5 C696.990581,5 698.472387,7.31 699.453161,8.83857143 C700.368645,10.2685714 700.747613,10.7142857 701.32671,10.7142857 C701.905806,10.7142857 702.284774,10.2685714 703.203097,8.83857143 C704.183871,7.31 705.664258,5 708.656258,5 C711.648258,5 713.128645,7.31 714.108,8.83857143 C715.024903,10.2685714 715.402452,10.7142857 715.980129,10.7142857 C716.562065,10.7142857 716.939613,10.2685714 717.859355,8.83857143 C718.83871,7.30857143 720.319097,5 723.311097,5 C726.305935,5 727.787742,7.30857143 728.768516,8.83857143 C729.688258,10.2685714 730.067226,10.7142857 730.647742,10.7142857 C731.229677,10.7142857 731.617161,10.2685714 732.536903,8.83714286 C733.517677,7.30857143 735.16129,5 738,5 L738,9.28571429 C738,9.28571429 737.032,9.73142857 736.112258,11.1614286 C735.131484,12.6914286 733.642581,15 730.647742,15" id="Fill-56"></path>
                </g>
            </g>
        </g>
    </g>
</svg>