<svg height="202" viewBox="0 0 312 202" width="312" xmlns="http://www.w3.org/2000/svg"><g fill="none" fill-rule="nonzero" transform="translate(.571429 .164948)"><path d="m1.29942857 201.467289c-3.49371428-25.845835.06742857-52.094475 19.36571433-70.973629 13.2982857-13.007598 31.3314285-20.017763 44.3051428-33.2931342 4.0582857-4.1516289 7.4022857-8.9692578 9.3062857-14.4998042 4.7531429-13.8177835 4.5737143-25.7268247 13.7405715-38.0535463 8.1908571-11.0153196 19.2651431-19.7271031 31.1165711-26.4946701 24.484572-13.98256706 54.932572-21.50081448 83.009143-16.66487633 0 0-31.108571 46.99648453 0 73.77380413 0 0 3.274286-44.2638248 46.389714-41.531165 0 0-13.098285 49.1821547 37.657143 84.703299 28.083429 19.653866 27.261715 55.200186 20.923429 83.03601l-132.337143-.002288z" fill="#d95727"/><path d="m36.6194286 201.467289c-3.4937143-25.845835.0674285-52.094475 19.3657143-70.973629 13.2982857-13.007598 31.3314285-20.017763 44.3051431-33.2931342 4.058285-4.1516289 7.402285-8.9692578 9.306285-14.4998042 4.753143-13.8177835 4.573715-25.7268247 13.740572-38.0535463 8.190857-11.0153196 19.265143-19.7271031 31.116571-26.4946701 14.313143-8.1739485 30.664-14.13247427 47.388572-16.71179386-27.994286-4.73180412-58.313143 2.77957732-82.708572 16.71179386-11.850285 6.767567-22.925714 15.4793505-31.1165711 26.4946701-9.1668572 12.3278659-8.9874286 24.2380515-13.7405715 38.0535463-1.9028571 5.5316908-5.248 10.347031-9.3062857 14.4998042-12.9737143 13.2753712-31.008 20.2855362-44.3051428 33.2931342-19.29942861 18.879154-22.85942861 45.126649-19.36571433 70.973629h173.47771443 15.284571z" fill="#fb8d4b"/><g fill="#fff" transform="translate(80 127.020619)"><path d="m8.94628571 30.0283608c-4.87771428 0-8.82971428-3.9582371-8.82971428-8.8410928v-12.04750511c0-4.88285567 3.952-8.84109279 8.82971428-8.84109279 4.87771429 0 8.82971429 3.95823712 8.82971429 8.84109279v12.04750511c0 4.8828557-3.952 8.8410928-8.82971429 8.8410928z"/><path d="m141.910857 30.0283608c-4.877714 0-8.829714-3.9582371-8.829714-8.8410928v-12.04750511c0-4.88285567 3.952-8.84109279 8.829714-8.84109279s8.829715 3.95823712 8.829715 8.84109279v12.04750511c.001142 4.8828557-3.953143 8.8410928-8.829715 8.8410928z"/><path d="m75.4285714 36.4594948c-8.9417143 0-17.3462857-3.7511134-23.0571428-10.2909587-3.2102857-3.6755876-2.8354286-9.2610619.8354285-12.4754846 3.6697143-3.2132783 9.248-2.8402268 12.4594286.8365052 2.3565714 2.6994742 5.9142857 4.2477526 9.7611429 4.2477526 3.848 0 7.4045714-1.5482784 9.76-4.2466083 3.2091428-3.6767319 8.7874285-4.0520721 12.4582857-.8376495 3.6719997 3.2132784 4.0479997 8.7987526.8365714 12.4754846-5.7062857 6.5398453-14.1108571 10.2909587-23.0537143 10.2909587z"/></g></g></svg>