<?xml version="1.0" encoding="UTF-8"?>
<svg width="261px" height="201px" viewBox="0 0 261 201" version="1.1" xmlns="http://www.w3.org/2000/svg" xmlns:xlink="http://www.w3.org/1999/xlink">
    <!-- Generator: Sketch 58 (84663) - https://sketch.com -->
    <title>icons-04</title>
    <desc>Created with Sketch.</desc>
    <g id="icons-04" stroke="none" stroke-width="1" fill="none" fill-rule="evenodd">
        <g fill="#60C1D8" fill-rule="nonzero" id="Shape">
            <path d="M212.6,73.3 L184.3,73.3 L137.9,18.5 C128,6.8 113.4,0 98,0 L89.6,0 C84.3,0 80.7,5.5 82.7,10.4 L108.7,73.3 L70.6,73.3 L53,46.8 C46.3,36.7 35.1,30.6 22.9,30.6 L8.5,30.6 C3.3,30.6 -0.4,36 1.5,40.9 L25,100.2 L1.5,159.5 C-0.4,164.3 3.3,169.8 8.5,169.8 L22.9,169.8 C35,169.8 46.3,163.8 53,153.6 L70.6,127 L108.7,127 L103.4,139.8 C101.8,143.6 103.6,148 107.5,149.6 C111.3,151.2 115.7,149.3 117.3,145.5 L125,127 L164.8,127 L126.6,172.1 C120.1,179.8 110.9,184.4 101,185.2 L105.9,173.3 C107.5,169.5 105.7,165.1 101.8,163.5 C98,161.9 93.6,163.7 92,167.6 L82.6,190 C80.6,194.9 84.3,200.4 89.5,200.4 L98,200.4 C113.4,200.4 128,193.6 138,181.9 L184.4,127.1 L212.7,127.1 C230.8,127.1 247.6,119 258.9,104.9 C261.1,102.2 261.1,98.3 258.9,95.5 C247.5,81.4 230.7,73.3 212.6,73.3 Z M100.8,15.1 C110.7,15.9 120,20.5 126.4,28.2 L164.6,73.3 L124.8,73.3 L100.8,15.1 Z M212.6,112.1 L119.8,112.1 C119.8,112.1 119.8,112.1 119.7,112.1 L66.5,112.1 C64,112.1 61.6,113.4 60.2,115.5 L40.4,145.4 C36.5,151.3 29.9,154.8 22.8,154.8 L19.4,154.8 L40.1,103 C40.8,101.2 40.8,99.2 40.1,97.5 L19.5,45.6 L22.9,45.6 C30,45.6 36.5,49.1 40.5,55 L60.3,85 C61.7,87.1 64,88.4 66.6,88.4 L119.9,88.4 C119.9,88.4 119.9,88.4 119.9,88.4 C119.9,88.4 119.9,88.4 119.9,88.4 L212.6,88.4 C223.9,88.4 234.6,92.7 242.7,100.3 C234.6,107.8 224,112.1 212.6,112.1 Z"></path>
        </g>
    </g>
</svg>