<?xml version="1.0" encoding="UTF-8"?>
<svg width="244px" height="224px" viewBox="0 0 244 224" version="1.1" xmlns="http://www.w3.org/2000/svg" xmlns:xlink="http://www.w3.org/1999/xlink">
    <!-- Generator: Sketch 58 (84663) - https://sketch.com -->
    <title>icons-03</title>
    <desc>Created with Sketch.</desc>
    <g id="icons-03" stroke="none" stroke-width="1" fill="none" fill-rule="evenodd">
        <g fill="#60C1D8" fill-rule="nonzero">
            <path d="M89.1,127.9 C93,127.9 96.2,124.7 96.2,120.8 L96.2,111.3 C96.2,107.4 93,104.2 89.1,104.2 C85.2,104.2 82,107.4 82,111.3 L82,120.8 C81.9,124.7 85.1,127.9 89.1,127.9 Z" id="Path"></path>
            <path d="M118.3,104.1 C114.4,104.1 111.2,107.3 111.2,111.2 L111.2,120.7 C111.2,124.6 114.4,127.8 118.3,127.8 C122.2,127.8 125.4,124.6 125.4,120.7 L125.4,111.2 C125.4,107.3 122.2,104.1 118.3,104.1 Z" id="Path"></path>
            <path d="M89.1,165.9 C93,165.9 96.2,162.7 96.2,158.8 L96.2,149.3 C96.2,145.4 93,142.2 89.1,142.2 C85.2,142.2 82,145.4 82,149.3 L82,158.8 C81.9,162.7 85.1,165.9 89.1,165.9 Z" id="Path"></path>
            <path d="M118.3,142.1 C114.4,142.1 111.2,145.3 111.2,149.2 L111.2,158.7 C111.2,162.6 114.4,165.8 118.3,165.8 C122.2,165.8 125.4,162.6 125.4,158.7 L125.4,149.2 C125.4,145.3 122.2,142.1 118.3,142.1 Z" id="Path"></path>
            <path d="M89.1,89.8 C93,89.8 96.2,86.6 96.2,82.7 L96.2,65.1 L111.2,65.1 L111.2,82.7 C111.2,86.6 114.4,89.8 118.3,89.8 C122.2,89.8 125.4,86.6 125.4,82.7 L125.4,35.6 C125.4,31.7 122.2,28.5 118.3,28.5 C114.4,28.5 111.2,31.7 111.2,35.6 L111.2,50.8 L96.2,50.8 L96.2,35.7 C96.2,31.8 93,28.6 89.1,28.6 C85.2,28.6 82,31.8 82,35.7 L82,82.8 C81.9,86.6 85.1,89.8 89.1,89.8 Z" id="Path"></path>
            <path d="M236.2,95.4 L153.9,95.4 L153.9,7.1 C153.9,3.2 150.7,0 146.8,0 L59.6,0 C55.7,0 52.5,3.2 52.5,7.1 L52.5,46.7 L30.8,46.7 C26.9,46.7 23.7,49.9 23.7,53.8 L23.7,128.1 C23.7,132 26.9,135.2 30.8,135.2 L52.5,135.2 L52.5,182.3 L7.1,182.3 C3.2,182.3 0,185.5 0,189.4 C0,193.3 3.2,196.5 7.1,196.5 L10.5,196.5 L10.5,216 C10.5,219.9 13.7,223.1 17.6,223.1 C21.5,223.1 24.7,219.9 24.7,216 L24.7,196.6 L52.4,196.6 L52.4,216.2 C52.4,220.1 55.6,223.3 59.5,223.3 L236.2,223.3 C240.1,223.3 243.302281,220.1 243.302281,216.2 L243.302281,102.5 C243.4,98.6 240.2,95.4 236.2,95.4 Z M37.9,121 L37.9,61 L52.5,61 L52.5,121 L37.9,121 Z M139.7,209.1 L66.7,209.1 L66.7,14.3 L139.7,14.3 L139.7,209.1 Z M229.1,209.1 L212.9,209.1 L212.9,201.5 C212.9,197.6 209.7,194.4 205.8,194.4 C201.9,194.4 198.7,197.6 198.7,201.5 L198.7,209.1 L154,209.1 L154,109.6 L229.2,109.6 L229.2,209.1 L229.1,209.1 Z" id="Shape"></path>
            <path d="M176.6,146.9 C180.5,146.9 183.7,143.7 183.7,139.8 L183.7,130.3 C183.7,126.4 180.5,123.2 176.6,123.2 C172.7,123.2 169.5,126.4 169.5,130.3 L169.5,139.8 C169.4,143.7 172.6,146.9 176.6,146.9 Z" id="Path"></path>
            <path d="M205.8,146.9 C209.7,146.9 212.9,143.7 212.9,139.8 L212.9,130.3 C212.9,126.4 209.7,123.2 205.8,123.2 C201.9,123.2 198.7,126.4 198.7,130.3 L198.7,139.8 C198.7,143.7 201.9,146.9 205.8,146.9 Z" id="Path"></path>
            <path d="M176.6,184.9 C180.5,184.9 183.7,181.7 183.7,177.8 L183.7,168.3 C183.7,164.4 180.5,161.2 176.6,161.2 C172.7,161.2 169.5,164.4 169.5,168.3 L169.5,177.8 C169.4,181.7 172.6,184.9 176.6,184.9 Z" id="Path"></path>
            <path d="M205.8,184.9 C209.7,184.9 212.9,181.7 212.9,177.8 L212.9,168.3 C212.9,164.4 209.7,161.2 205.8,161.2 C201.9,161.2 198.7,164.4 198.7,168.3 L198.7,177.8 C198.7,181.7 201.9,184.9 205.8,184.9 Z" id="Path"></path>
        </g>
    </g>
</svg>