<?xml version="1.0" encoding="UTF-8"?>
<svg width="198px" height="232px" viewBox="0 0 198 232" version="1.1" xmlns="http://www.w3.org/2000/svg" xmlns:xlink="http://www.w3.org/1999/xlink">
    <!-- Generator: Sketch 58 (84663) - https://sketch.com -->
    <title>icons-05</title>
    <desc>Created with Sketch.</desc>
    <g id="icons-05" stroke="none" stroke-width="1" fill="none" fill-rule="evenodd">
        <g fill="#60C1D8" fill-rule="nonzero">
            <path d="M197.2,62.9 L197.2,62.7 C197.1,60.5 197,58.1 197,55.5 C196.8,42.7 186.7,32.1 173.9,31.4 C147.2,29.9 126.6,21.2 109,4.1 L108.8,4 C103,-1.3 94.4,-1.3 88.6,4 L88.4,4.1 C70.9,21.3 50.2,30 23.6,31.4 C10.8,32.2 0.6,42.7 0.5,55.5 C0.5,58.1 0.4,60.5 0.3,62.7 L0.3,63.1 C-0.2,90.3 -0.9,124.1 10.5,154.8 C16.7,171.7 26.1,186.4 38.5,198.4 C52.6,212.1 71,223 93.3,230.8 C94,231.1 94.8,231.3 95.5,231.4 C96.6,231.6 97.7,231.7 98.8,231.7 C99.9,231.7 101,231.6 102.1,231.4 C102.9,231.2 103.6,231 104.4,230.8 C126.7,223 145.1,212.1 159.1,198.4 C171.5,186.3 180.9,171.7 187.1,154.8 C198.3,124 197.7,90.1 197.2,62.9 Z M174.2,150.1 C162.3,182.5 137.9,204.7 99.7,218 C99.6,218 99.4,218.1 99.3,218.1 C98.9,218.2 98.5,218.2 98.1,218.1 C98,218.1 97.8,218 97.7,218 C59.5,204.7 35.1,182.5 23.2,150.1 C12.8,121.8 13.4,90.8 13.9,63.4 L13.9,63.2 C14,60.8 14.1,58.4 14.1,55.7 C14.1,50 18.7,45.3 24.3,45 C39.4,44.2 52.6,41.2 64.8,36.1 C77,31 87.8,23.7 97.8,13.9 C98.3,13.5 99,13.5 99.5,13.9 C109.6,23.7 120.4,30.9 132.5,36.1 C144.7,41.3 157.9,44.2 173,45 C178.7,45.3 183.2,50 183.3,55.7 C183.3,58.4 183.4,60.9 183.5,63.2 C184.1,90.7 184.7,121.7 174.2,150.1 Z" id="Shape"></path>
            <path d="M98.7,58.1 C66.8,58.1 40.9,84 40.9,115.9 C40.9,147.8 66.8,173.7 98.7,173.7 C130.6,173.7 156.5,147.8 156.5,115.9 C156.5,84.1 130.5,58.1 98.7,58.1 Z M98.7,160.1 C74.3,160.1 54.5,140.3 54.5,115.9 C54.5,91.5 74.3,71.7 98.7,71.7 C123.1,71.7 142.9,91.5 142.9,115.9 C142.9,140.3 123,160.1 98.7,160.1 Z" id="Shape"></path>
            <path d="M115.3,98 L88.5,124.8 L81.2,117.5 C78.5,114.8 74.2,114.8 71.6,117.5 C68.9,120.2 68.9,124.5 71.6,127.1 L83.7,139.2 C85,140.5 86.8,141.2 88.5,141.2 C90.2,141.2 92,140.5 93.3,139.2 L124.9,107.6 C127.6,104.9 127.6,100.6 124.9,98 C122.3,95.3 118,95.3 115.3,98 Z" id="Path"></path>
        </g>
    </g>
</svg>