<?xml version="1.0" encoding="UTF-8"?>
<svg width="133px" height="26px" viewBox="0 0 133 26" version="1.1" xmlns="http://www.w3.org/2000/svg" xmlns:xlink="http://www.w3.org/1999/xlink">
    <!-- Generator: Sketch 58 (84663) - https://sketch.com -->
    <title>logo copy-01</title>
    <desc>Created with Sketch.</desc>
    <defs>
        <linearGradient x1="15.1475474%" y1="85.3390566%" x2="84.8531969%" y2="14.6611321%" id="linearGradient-1">
            <stop stop-color="#2DC1D9" offset="0%"></stop>
            <stop stop-color="#54C4C4" offset="99.96%"></stop>
        </linearGradient>
        <linearGradient x1="21.0325981%" y1="58.8986908%" x2="79.7797919%" y2="28.4577369%" id="linearGradient-2">
            <stop stop-color="#2DC1D9" offset="0%"></stop>
            <stop stop-color="#54C4C4" offset="99.96%"></stop>
        </linearGradient>
    </defs>
    <g id="Symbols" stroke="none" stroke-width="1" fill="none" fill-rule="evenodd">
        <g id="Footer" transform="translate(-165.000000, -461.000000)">
            <g id="logo-copy-01" transform="translate(165.000000, 461.000000)">
                <g>
                    <path d="M33.274359,3.09056604 L36.8307692,1.81509434 C37.1717949,1.71698113 37.5128205,1.96226415 37.5128205,2.30566038 L37.5128205,8.68301887 C37.5128205,9.1245283 38.0487179,9.36981132 38.3410256,9.0754717 C38.7307692,8.73207547 39.1205128,8.43773585 39.6076923,8.19245283 C40.4846154,7.7509434 41.3615385,7.50566038 42.3358974,7.50566038 C43.7487179,7.50566038 44.9179487,7.94716981 45.7948718,8.78113208 C46.6717949,9.61509434 47.1589744,10.7924528 47.1589744,12.2641509 L47.1589744,22.5660377 C47.1589744,22.8603774 46.9153846,23.0566038 46.6717949,23.0566038 L43.1153846,23.0566038 C42.8230769,23.0566038 42.6282051,22.8113208 42.6282051,22.5660377 L42.6282051,13.7358491 C42.6282051,12.3132075 41.9948718,11.6264151 40.7282051,11.6264151 C39.9487179,11.6264151 39.2179487,11.9698113 38.5846154,12.7056604 C37.9025641,13.3924528 37.6102564,14.1773585 37.6102564,15.0113208 L37.6102564,22.5169811 C37.6102564,22.8113208 37.3666667,23.0075472 37.1230769,23.0075472 L33.5666667,23.0075472 C33.274359,23.0075472 33.0794872,22.7622642 33.0794872,22.5169811 L33.0794872,3.53207547 C32.9333333,3.33584906 33.0794872,3.13962264 33.274359,3.09056604 Z" id="Path" fill="#343459" fill-rule="nonzero"></path>
                    <path d="M56.1230769,7.45660377 C58.5589744,7.45660377 60.4102564,8.33962264 61.6769231,10.154717 C62.8948718,11.8716981 63.4307692,13.8830189 63.3333333,16.2867925 C63.3333333,16.5320755 63.0897436,16.7773585 62.8461538,16.7773585 L53.7358974,16.7773585 C53.3948718,16.7773585 53.1512821,17.1207547 53.2487179,17.4641509 C53.4923077,18.1018868 53.8333333,18.5924528 54.3692308,18.9358491 C55.0512821,19.4264151 55.7820513,19.6226415 56.6589744,19.6226415 C57.974359,19.6226415 59.1435897,19.2792453 60.0692308,18.5433962 C60.3128205,18.3471698 60.6538462,18.445283 60.8,18.690566 L62.1641026,20.8981132 C62.3102564,21.0943396 62.2615385,21.3886792 62.0666667,21.5358491 C60.4589744,22.8113208 58.4615385,23.4490566 56.1230769,23.4490566 C53.9794872,23.4490566 52.1282051,22.7622642 50.6666667,21.3886792 C49.1564103,20.0150943 48.425641,18.0528302 48.425641,15.5018868 C48.425641,13.1471698 49.1564103,11.2339623 50.6179487,9.71320755 C51.9820513,8.19245283 53.8333333,7.45660377 56.1230769,7.45660377 Z M56.025641,11.0377358 C54.7589744,11.0377358 53.8820513,11.6264151 53.3948718,12.8528302 C53.2487179,13.1962264 53.4923077,13.5886792 53.8820513,13.5886792 L58.0717949,13.5886792 C58.3641026,13.5886792 58.6564103,13.2943396 58.5589744,13 C58.4615385,12.509434 58.2179487,12.1169811 57.925641,11.7735849 C57.4384615,11.2830189 56.8051282,11.0377358 56.025641,11.0377358 Z" id="Shape" fill="#343459" fill-rule="nonzero"></path>
                    <path d="M68.9846154,23.0566038 L65.4282051,23.0566038 C65.1358974,23.0566038 64.9410256,22.8113208 64.9410256,22.5660377 L64.9410256,3.53207547 C64.9410256,3.33584906 65.0871795,3.13962264 65.2820513,3.04150943 L68.8384615,1.76603774 C69.1794872,1.66792453 69.5205128,1.91320755 69.5205128,2.25660377 L69.5205128,22.5169811 C69.4717949,22.8113208 69.2282051,23.0566038 68.9846154,23.0566038 Z" id="Path" fill="#343459" fill-rule="nonzero"></path>
                    <path d="M71.274359,22.5169811 L71.274359,2.25660377 C71.274359,1.91320755 71.6153846,1.66792453 71.9564103,1.76603774 L75.5128205,3.04150943 C75.7076923,3.09056604 75.8538462,3.28679245 75.8538462,3.53207547 L75.8538462,22.5169811 C75.8538462,22.8113208 75.6102564,23.0075472 75.3666667,23.0075472 L71.8102564,23.0075472 C71.5179487,23.0566038 71.274359,22.8113208 71.274359,22.5169811 Z" id="Path" fill="#343459" fill-rule="nonzero"></path>
                    <path d="M84.8666667,7.45660377 C87.0102564,7.45660377 88.8128205,8.14339623 90.3230769,9.51698113 C91.8333333,10.890566 92.5641026,12.9018868 92.5641026,15.5018868 C92.5641026,18.0037736 91.7846154,19.9660377 90.274359,21.3396226 C88.7641026,22.7622642 86.9615385,23.4490566 84.8666667,23.4490566 C82.7717949,23.4490566 80.9692308,22.7622642 79.4589744,21.3396226 C77.9487179,19.9169811 77.2179487,17.954717 77.2179487,15.5018868 C77.2179487,12.9018868 77.9487179,10.9396226 79.4589744,9.51698113 C80.9692308,8.14339623 82.7717949,7.45660377 84.8666667,7.45660377 Z M84.8666667,11.2830189 C83.9897436,11.2830189 83.2589744,11.6264151 82.7230769,12.3622642 C82.1384615,13.0490566 81.8948718,14.1283019 81.8948718,15.5018868 C81.8948718,16.8754717 82.1871795,17.9056604 82.7717949,18.5924528 C83.3564103,19.2792453 84.0384615,19.6226415 84.9153846,19.6226415 C85.7923077,19.6226415 86.5230769,19.2792453 87.1076923,18.5924528 C87.6923077,17.9056604 87.9846154,16.8754717 87.9846154,15.5018868 C87.9846154,14.1283019 87.6923077,13.0981132 87.1564103,12.3622642 C86.5230769,11.6264151 85.7923077,11.2830189 84.8666667,11.2830189 Z" id="Shape" fill="#343459" fill-rule="nonzero"></path>
                    <path d="M94.3179487,8.29056604 L97.874359,7.06415094 C98.2153846,6.96603774 98.5564103,7.21132075 98.5564103,7.55471698 L98.5564103,8.68301887 C98.5564103,9.1245283 99.0923077,9.36981132 99.4333333,9.02641509 C99.774359,8.68301887 100.164103,8.43773585 100.553846,8.19245283 C101.333333,7.7509434 102.161538,7.50566038 103.038462,7.50566038 C104.694872,7.50566038 105.766667,8.09433962 106.4,9.27169811 C106.546154,9.56603774 106.984615,9.61509434 107.228205,9.36981132 C107.715385,8.87924528 108.251282,8.43773585 108.884615,8.14339623 C109.761538,7.70188679 110.638462,7.45660377 111.515385,7.45660377 C112.830769,7.45660377 113.902564,7.8490566 114.682051,8.68301887 C115.461538,9.51698113 115.851282,10.645283 115.851282,12.1169811 L115.851282,22.5169811 C115.851282,22.8113208 115.607692,23.0075472 115.364103,23.0075472 L111.758974,23.0075472 C111.466667,23.0075472 111.271795,22.7622642 111.271795,22.5169811 L111.271795,13.7849057 C111.271795,12.3132075 110.735897,11.6264151 109.712821,11.6264151 C109.079487,11.6264151 108.494872,11.9207547 108.007692,12.509434 C107.520513,13.0981132 107.276923,13.7358491 107.276923,14.4716981 L107.276923,22.5660377 C107.276923,22.8603774 107.033333,23.0566038 106.789744,23.0566038 L103.233333,23.0566038 C102.941026,23.0566038 102.746154,22.8113208 102.746154,22.5660377 L102.746154,13.7849057 C102.746154,12.3132075 102.210256,11.6264151 101.138462,11.6264151 C100.505128,11.6264151 99.9692308,11.9698113 99.4333333,12.5584906 C98.9461538,13.1962264 98.6538462,13.8830189 98.6538462,14.6188679 L98.6538462,22.5169811 C98.6538462,22.8113208 98.4102564,23.0075472 98.1666667,23.0075472 L94.6102564,23.0075472 C94.3179487,23.0075472 94.1230769,22.7622642 94.1230769,22.5169811 L94.1230769,8.73207547 C93.9769231,8.53584906 94.1230769,8.33962264 94.3179487,8.29056604 Z" id="Path" fill="#343459" fill-rule="nonzero"></path>
                    <path d="M119.553846,6.18113208 C118.823077,6.18113208 118.238462,5.93584906 117.751282,5.49433962 C117.264103,5.05283019 117.069231,4.41509434 117.069231,3.67924528 C117.069231,2.94339623 117.312821,2.35471698 117.751282,1.81509434 C118.189744,1.2754717 118.823077,1.07924528 119.553846,1.07924528 C120.284615,1.07924528 120.917949,1.3245283 121.405128,1.81509434 C121.892308,2.30566038 122.135897,2.94339623 122.135897,3.67924528 C122.135897,4.41509434 121.892308,5.00377358 121.405128,5.49433962 C120.917949,5.98490566 120.284615,6.18113208 119.553846,6.18113208 Z M121.405128,23.0566038 L117.848718,23.0566038 C117.55641,23.0566038 117.361538,22.8113208 117.361538,22.5660377 L117.361538,9.71320755 C117.361538,9.27169811 117.653846,8.83018868 118.092308,8.73207547 L121.405128,7.89811321 C121.697436,7.89811321 121.892308,8.14339623 121.892308,8.38867925 L121.892308,22.5169811 C121.892308,22.8113208 121.648718,23.0566038 121.405128,23.0566038 Z" id="Shape" fill="#343459" fill-rule="nonzero"></path>
                    <path d="M127.446154,23.0566038 L123.889744,23.0566038 C123.597436,23.0566038 123.402564,22.8113208 123.402564,22.5660377 L123.402564,9.61509434 C123.402564,9.27169811 123.646154,8.97735849 123.938462,8.87924528 L127.446154,7.8490566 C127.738462,7.8490566 127.933333,8.09433962 127.933333,8.33962264 L127.933333,8.33962264 C127.933333,8.78113208 128.469231,9.02641509 128.761538,8.73207547 C129.833333,7.7509434 131.1,7.30943396 132.464103,7.45660377 C132.707692,7.45660377 132.951282,7.70188679 132.951282,7.94716981 L132.951282,11.3320755 C132.951282,11.6264151 132.658974,11.8716981 132.366667,11.8226415 C130.612821,11.5773585 129.2,12.0679245 128.030769,13.3924528 C127.933333,13.490566 127.884615,13.5886792 127.884615,13.7358491 L127.884615,22.5169811 C127.982051,22.8113208 127.738462,23.0566038 127.446154,23.0566038 Z" id="Path" fill="#343459" fill-rule="nonzero"></path>
                    <path d="M12.9102564,26 C5.7974359,26 0,20.1622642 0,13 C0,5.83773585 5.7974359,0 12.9102564,0 C20.0230769,0 25.8205128,5.83773585 25.8205128,13 C25.8205128,20.1622642 20.0230769,26 12.9102564,26 Z M12.9102564,3.9245283 C7.94102564,3.9245283 3.8974359,7.99622642 3.8974359,13 C3.8974359,18.0037736 7.94102564,22.0754717 12.9102564,22.0754717 C17.8794872,22.0754717 21.9230769,18.0037736 21.9230769,13 C21.9230769,7.99622642 17.8794872,3.9245283 12.9102564,3.9245283 Z" id="Shape" fill="url(#linearGradient-1)" fill-rule="nonzero"></path>
                    <path d="M12.9102564,19.1811321 C9.93846154,19.1811321 7.45384615,17.0226415 6.86923077,14.1773585 C6.77179487,13.5886792 7.21025641,13 7.84358974,13 L9.79230769,13 C10.2307692,13 10.6205128,13.2943396 10.7179487,13.7358491 C11.0102564,14.6188679 11.8384615,15.3056604 12.8615385,15.3056604 C13.8358974,15.3056604 14.7128205,14.6679245 15.0051282,13.7358491 C15.1512821,13.2943396 15.4923077,13 15.9307692,13 L17.8794872,13 C18.5128205,13 18.9512821,13.5396226 18.8538462,14.1773585 C18.3666667,17.0226415 15.8820513,19.1811321 12.9102564,19.1811321 Z" id="Path" fill="url(#linearGradient-2)" fill-rule="nonzero"></path>
                </g>
            </g>
        </g>
    </g>
</svg>