<?xml version="1.0" encoding="UTF-8"?>
<svg width="53px" height="47px" viewBox="0 0 53 47" version="1.1" xmlns="http://www.w3.org/2000/svg" xmlns:xlink="http://www.w3.org/1999/xlink">
    <!-- Generator: Sketch 59.1 (86144) - https://sketch.com -->
    <title>pistons</title>
    <desc>Created with Sketch.</desc>
    <g id="Symbols" stroke="none" stroke-width="1" fill="none" fill-rule="evenodd">
        <g id="Services" transform="translate(-463.000000, -3.000000)" fill="#53B3CB" fill-rule="nonzero">
            <g id="Group-10-Copy-2" transform="translate(463.000000, 3.000000)">
                <g id="pistons">
                    <path d="M17.1221678,12.8781625 C15.9502203,11.7069523 14.0502212,11.7073446 12.8786663,12.8789471 C11.7071112,14.0505497 11.7071112,15.9495974 12.8786663,17.1211999 C14.0502212,18.2928025 15.9502203,18.2928025 17.1221678,17.1219847 C18.2929378,15.9488126 18.2925452,14.049765 17.1213828,12.8773777 L17.1221678,12.8781625 Z M15.9090099,15.9080067 C15.5412554,16.2760453 14.9878576,16.3859075 14.5074612,16.1869784 C14.0266723,15.9880492 13.7134727,15.5191727 13.7134727,14.9992888 C13.7134727,14.4790126 14.0266723,14.0101361 14.5074612,13.8112069 C14.9878576,13.6122778 15.5412554,13.7225324 15.9090099,14.0901786 C16.4109927,14.5920138 16.4109927,15.4061715 15.9090099,15.9080067 Z" id="Shape"></path>
                    <path d="M39.0048325,42.9999858 C40.0633455,43.002816 41.0787866,42.5822418 41.824825,41.8321162 C43.1763083,40.4838405 43.386792,38.3687788 42.3278726,36.7807556 C41.2685469,35.1927324 39.2352266,34.5746711 37.4713092,35.3040728 C35.707798,36.0334744 34.7049534,37.9075695 35.0771599,39.7796327 C35.4489601,41.6516959 37.0917886,43.0003779 39.0003627,42.9999858 L39.0048325,42.9999858 Z M37.4347387,37.4378266 C38.3014597,36.571078 39.7065798,36.571078 40.5733009,37.4378266 C41.4400219,38.3045753 41.4400219,39.7101465 40.5733009,40.5768951 C39.6943897,41.4131673 38.3136499,41.4131673 37.4347387,40.5768951 C37.0182412,40.1603845 36.7845964,39.5959616 36.7845964,39.0071577 C36.7845964,38.4187602 37.0182412,37.853931 37.4347387,37.4378266 Z" id="Shape"></path>
                    <path d="M43.1139237,0.521710475 C42.7823457,0.187897262 42.3330981,0 41.864441,0 C41.3957839,0 40.9461319,0.187897262 40.6149583,0.521710475 L38.7411388,2.40679713 L36.2429823,4.92486529 L27.4982214,13.7397344 C27.0008545,14.240658 26.7218438,14.9201044 26.7218438,15.6284894 C26.7218438,16.3372819 27.0008545,17.0167283 27.4982214,17.5176519 L27.8204989,17.8408679 C28.4153173,18.4371666 29.2555844,18.7143253 30.0853378,18.5879736 C30.0893814,18.5871584 30.0938295,18.5871584 30.097873,18.5879736 L30.1763196,18.5790067 L30.1904723,18.5790067 L28.4767806,20.3063575 C27.9280596,20.8590445 27.250751,21.500993 26.4998484,22.1849227 C25.7137661,21.4724619 25.033627,20.8288832 24.5176594,20.3096182 L22.807607,18.5790067 C22.8375299,18.5790067 22.8682614,18.5843053 22.8957582,18.5887888 C22.8998018,18.5883811 22.9042498,18.5883811 22.9082934,18.5887888 C23.7380469,18.7163633 24.5783139,18.4396122 25.1731324,17.8424983 L25.4962186,17.5176519 C26.5309843,16.4746386 26.5309843,14.783563 25.4962186,13.7405496 L16.7514577,4.92568052 L14.2585579,2.40679713 L12.3847383,0.521710475 C11.6855942,-0.151214547 10.5849172,-0.151214547 9.88577305,0.521710475 L0.517079563,9.95977904 C-0.172359854,10.6555289 -0.172359854,11.782505 0.517079563,12.4778472 L2.39089909,14.3674173 L13.6338165,25.701985 C14.130779,26.2029086 14.8052571,26.4845507 15.5080405,26.4845507 C16.2108239,26.4845507 16.8848976,26.2029086 17.38186,25.701985 L17.7033289,25.3771387 C18.2605416,24.8077407 18.5338912,24.016208 18.4473574,23.2214147 C18.4473574,23.2124479 18.4526141,23.2055189 18.4526141,23.196552 C18.4518054,23.1529402 18.4485705,23.1093285 18.4429094,23.0665319 C18.4429094,23.0396313 18.4384614,23.0155837 18.4348222,22.9899057 L20.1505356,24.7144034 C20.5973571,25.1651938 21.1133248,25.7125823 21.643445,26.2986913 C18.2168703,28.9944672 14.5763874,31.4379472 12.4563106,31.8911831 C11.9577307,32.0020466 11.4720903,32.1663039 11.0078813,32.3806943 L10.631419,32.001639 C10.3002454,31.6674183 9.85059342,31.4795209 9.38193632,31.4795209 C8.91327932,31.4795209 8.46362732,31.6674183 8.13245374,32.001639 L6.88944098,33.2570048 C6.55826741,33.590818 6.37185595,34.044054 6.37185595,34.5164465 C6.37185595,34.9888391 6.55826741,35.4416674 6.88944098,35.7758883 L7.22263635,36.1105166 C6.11185031,38.4936737 6.32050178,41.2893082 7.77297479,43.4776392 C8.33059171,44.3074848 9.03984501,45.0227988 9.86191559,45.5860831 C12.0309204,47.0635835 14.81294,47.2755283 17.1780609,46.1444763 L17.5084258,46.4782895 C17.8395994,46.8125103 18.2892514,47 18.7579084,47 C19.2265655,47 19.6758132,46.8125103 20.0073911,46.4782895 L21.2520213,45.2192554 C21.9414608,44.5239131 21.9414608,43.3965295 21.2520213,42.7011872 L20.875559,42.3209092 C21.0874455,41.8542229 21.2499995,41.366342 21.359582,40.8654184 C21.7873983,38.844198 23.9895609,35.4400372 26.4945916,32.14837 C29.4387609,36.013511 31.2644613,39.0932332 31.6417322,40.8597123 C31.7509103,41.3626737 31.9134644,41.8521849 32.1257551,42.3200941 L31.7488885,42.7003721 C31.4173106,43.0341853 31.2308991,43.4874212 31.2308991,43.9598137 C31.2308991,44.4322063 31.4173106,44.8854422 31.7488885,45.2192554 L32.9975624,46.4782895 C33.3291403,46.8125103 33.7783879,47 34.2474494,47 C34.7161065,47 35.165354,46.8125103 35.496932,46.4782895 L35.8272968,46.1452915 C38.1908004,47.2747131 40.9707981,47.0631759 43.1393985,45.5889361 C43.5518491,45.3081092 43.9363986,44.988154 44.2877903,44.6335538 C44.6371602,44.2818069 44.9517549,43.8962302 45.226722,43.4829378 C46.6816211,41.2937917 46.8914857,38.4961193 45.779891,36.1113317 L46.112682,35.7758883 C46.4442598,35.4416674 46.6306714,34.9888391 46.6306714,34.5164465 C46.6306714,34.044054 46.4442598,33.590818 46.112682,33.2570048 L44.8648168,31.9979707 C44.1745686,31.3026285 43.0565041,31.3026285 42.3666603,31.9979707 L41.9893893,32.3782488 C41.527202,32.1614128 41.041966,31.9983783 40.5433861,31.8919983 C38.6998937,31.4958244 35.4500258,29.5039501 31.356656,26.2897245 C31.8960767,25.6975016 32.3999134,25.1651938 32.8483523,24.7127731 L34.562044,22.9854222 C34.5575961,23.0184367 34.5567873,23.0469678 34.5523393,23.0824278 C34.5470826,23.1280775 34.5446564,23.1745423 34.5446564,23.2205995 C34.5446564,23.2283437 34.5491044,23.2356803 34.5491044,23.2434244 C34.4682317,24.0321039 34.741177,24.8158924 35.2935372,25.3803994 L35.615006,25.7056533 C36.1119685,26.2065769 36.7860422,26.488219 37.48923,26.488219 C38.1920134,26.488219 38.8660871,26.2065769 39.3630495,25.7056533 L50.609202,14.3690477 L52.4826172,12.4798851 C53.1724609,11.7845429 53.1724609,10.6571591 52.4826172,9.96181695 L43.1139237,0.521710475 Z M48.7353824,13.7442179 L47.4854954,15.003252 L38.1168019,5.55417855 L39.3658801,4.29514447 L44.0475985,9.01417881 L48.7353824,13.7442179 Z M8.94967197,9.02518366 L13.6313904,4.30614933 L14.8804687,5.56518341 L5.51420129,14.9987686 L4.26431427,13.7397344 L8.94967197,9.02518366 Z M11.1348513,1.78441281 L12.3847383,3.04426211 L3.02130151,12.4823307 L1.7661578,11.220851 L11.1348513,1.78441281 Z M16.454655,24.1168818 L16.1327818,24.4421358 C15.9673972,24.6092461 15.7425712,24.7033986 15.5080405,24.7033986 C15.2735098,24.7033986 15.0486838,24.6092461 14.8828949,24.4421358 L6.76327963,16.2578027 L16.1319731,6.81321274 L24.2528014,14.9987686 C24.597319,15.3464397 24.597319,15.9101315 24.2528014,16.2578027 L23.9293107,16.5818337 C23.724703,16.7803283 23.4392225,16.8699973 23.1589987,16.82394 C23.140398,16.82394 23.1230104,16.82394 23.1044096,16.8194566 C22.943473,16.7990773 22.7809189,16.7795132 22.5593279,16.7713614 L22.524957,16.7713614 C22.4048611,16.7713614 22.2855739,16.7713614 22.165478,16.7803283 C22.1141239,16.7803283 22.061961,16.7803283 22.0126288,16.7803283 L21.953996,16.7803283 C21.5330538,16.8104897 21.1161552,16.8879311 20.7121964,17.0118373 C20.6705469,17.0244725 20.6361759,17.0285483 20.5937178,17.0419987 L20.5751172,17.0493352 C20.563795,17.0538187 20.5532815,17.0554491 20.5427681,17.0599325 C20.4048802,17.1072126 20.2722491,17.165905 20.1380003,17.2237822 C20.0999902,17.2396781 20.0567233,17.2539436 20.020735,17.2698394 L20.0045605,17.277176 L19.9164094,17.3191574 C19.8189577,17.3623615 19.7243368,17.4116796 19.6337594,17.4675188 L19.4311734,17.5844961 C19.4073159,17.5995768 19.3826498,17.6118044 19.3587923,17.6268851 L19.3288694,17.6440037 C19.201495,17.7328575 19.0640114,17.8221189 18.9463418,17.9109728 L18.9232931,17.9317596 C18.8658734,17.9753713 18.8104757,18.0206134 18.7546735,18.0650403 C18.6046547,18.1844632 18.4619145,18.3124452 18.3272615,18.4489867 C18.1917998,18.5855281 18.0644253,18.7294061 17.9455425,18.8806205 C17.9006582,18.9360522 17.8573913,18.9918916 17.8149332,19.0481385 L17.7943107,19.0730012 C17.7186947,19.17286 17.6382264,19.2910599 17.5427967,19.4373835 C17.5241959,19.4667297 17.5031691,19.4952608 17.4845684,19.5262372 L17.3802427,19.7125042 C17.3458717,19.7675283 17.3272711,19.8172539 17.2981569,19.8726856 C17.1618864,20.1302802 17.0458342,20.3980644 16.9508088,20.6740003 C16.9447433,20.6874507 16.9419128,20.7017162 16.9366561,20.714759 C16.9313994,20.7282093 16.9366561,20.7343231 16.9289731,20.74329 L16.9164379,20.7754893 C16.9006677,20.8288832 16.890963,20.8859451 16.8760016,20.9401542 C16.8210082,21.1313122 16.7761238,21.3257308 16.741753,21.5217798 C16.7231522,21.6212309 16.7098083,21.7113075 16.701721,21.7887488 C16.6867596,21.9126551 16.6746286,22.0361538 16.6665414,22.1608751 L16.6665414,22.1706572 C16.6523887,22.3047532 16.6479407,22.4400718 16.6531974,22.5749828 L16.6531974,22.6944057 L16.6531974,22.7885581 C16.6592629,22.9381422 16.6770549,23.0877264 16.697273,23.2491306 L16.697273,23.2560596 C16.697273,23.2809224 16.697273,23.3057851 16.7025297,23.3310554 C16.7498403,23.6179962 16.6576454,23.9102357 16.454655,24.1168818 Z M21.4012314,23.4500706 L18.7910662,20.8272527 C18.9083316,20.5818858 19.0502631,20.3495617 19.214839,20.1335409 C19.2289916,20.114792 19.2439531,20.0997112 19.2548709,20.0838153 C19.2653844,20.0675118 19.296116,20.032867 19.3147168,20.0088194 L19.3236127,19.9974071 C19.4020592,19.9028471 19.4817188,19.8086946 19.5690612,19.7194332 C19.6564037,19.6305793 19.745768,19.5539532 19.840389,19.4756966 C19.8759729,19.4532793 19.9091308,19.4271938 19.939458,19.3978476 C19.9641242,19.3811366 19.9851511,19.3615725 20.0081998,19.3428234 C20.2047204,19.1932392 20.4149893,19.0628116 20.6361759,18.9527634 C20.6466894,18.9527634 20.6547767,18.9429813 20.6660989,18.9376827 L23.2693898,21.5686522 C23.7740352,22.07732 24.4177816,22.6931829 25.1686844,23.3734444 C24.489354,23.9648522 23.7712048,24.5729709 23.0275806,25.1819049 C22.4513629,24.5428096 21.8880848,23.9436577 21.3996139,23.4508859 L21.4012314,23.4500706 Z M40.19159,33.6360601 C40.7370761,33.7457008 41.261131,33.9433802 41.7439407,34.2221692 C41.7698199,34.2348044 41.796508,34.2458092 41.8240047,34.2551837 C41.8417967,34.2629279 41.85878,34.2702644 41.8761675,34.2763782 C42.0702619,34.3595258 42.2898312,34.3595258 42.4839256,34.2763782 C42.5017176,34.2702644 42.5182965,34.2629279 42.5360884,34.2551837 C42.6387968,34.211572 42.7322047,34.1483961 42.8106512,34.0689167 L43.6165472,33.2570048 L44.8656254,34.516039 L44.0848,35.3030882 C44.0686254,35.3197992 44.0633686,35.3414012 44.0484072,35.3581122 C44.0103971,35.4049847 43.9772393,35.4551178 43.9493382,35.5085117 C43.8894925,35.602664 43.8543128,35.7106745 43.847843,35.8219455 C43.8385427,35.8781924 43.8349034,35.9352544 43.8373296,35.9923165 C43.8429907,36.0461179 43.8530997,36.0995118 43.8680612,36.1516828 C43.8818095,36.2111904 43.9020278,36.2690677 43.9283113,36.3240918 C43.9380161,36.3448787 43.9380161,36.3668884 43.9493382,36.3864525 C45.038693,38.2931413 44.9659075,40.6563267 43.7613093,42.4912802 C43.6161429,42.7052631 43.4564193,42.9090562 43.2833518,43.1010293 C43.275669,43.1099963 43.2639424,43.1144797 43.2558551,43.1242618 C43.1919658,43.2065942 43.1228196,43.2852584 43.0492256,43.3590315 L43.0362859,43.3745198 L43.0184938,43.3904156 C42.9444954,43.4637812 42.8668577,43.5330709 42.785985,43.5986923 C42.7762803,43.6060288 42.7730454,43.6166261 42.7633407,43.6243702 C42.5712681,43.8000399 42.3682776,43.9622593 42.1543695,44.1098055 C40.3347346,45.3207444 37.9926623,45.3928872 36.1026682,44.2960725 C36.0832588,44.2842524 36.0610188,44.2842524 36.0408006,44.2744703 C35.986616,44.2479772 35.9291964,44.227598 35.8705637,44.2141476 C35.8184008,44.1982518 35.7646205,44.188062 35.7104358,44.1827634 C35.655038,44.1807255 35.599236,44.1839862 35.5446469,44.1925455 C35.4884404,44.1978441 35.4330426,44.208849 35.3792623,44.22556 C35.2729147,44.2675414 35.173037,44.325011 35.0824596,44.3955234 C35.0654764,44.4106042 35.0436407,44.4159028 35.0278705,44.4322063 L34.2466406,45.2192554 L32.9975624,43.9602214 L33.8095239,43.1417881 C33.8220592,43.1287453 33.8265072,43.1108114 33.8386381,43.0973611 C33.8827136,43.0460052 33.919915,42.9889432 33.949838,42.9282127 C33.9736953,42.8878618 33.9943179,42.8454728 34.0117055,42.801861 C34.0307106,42.7399079 34.0432459,42.6759169 34.048907,42.6111106 C34.0699339,42.5031003 34.0614423,42.391014 34.0242408,42.2870795 C34.0125142,42.2340933 33.9959354,42.1819223 33.9736953,42.1321967 C33.9652037,42.1126325 33.9652037,42.0914381 33.9542859,42.0726891 C33.6793189,41.5799173 33.4819896,41.0463868 33.3703854,40.4920694 C32.8139815,37.8700667 30.0279182,33.8231422 27.6227653,30.6977704 C28.4840591,29.614406 29.3506097,28.5750609 30.1763196,27.6241621 C33.3897948,30.1593488 37.5187485,33.061771 40.19159,33.6360601 L40.19159,33.6360601 Z M31.6021046,23.453739 C31.0570228,24.0023501 30.2875195,24.8301579 29.4051987,25.8275217 C29.3971115,25.8373037 29.3857893,25.840972 29.377702,25.8515692 C29.3700191,25.8621665 29.3724453,25.8642044 29.3679973,25.8703182 C25.8346707,29.8768916 20.4348031,36.6945878 19.6309288,40.4985908 C19.5185159,41.0508702 19.3211866,41.5823628 19.0462195,42.0735043 C19.0365148,42.0914381 19.0373235,42.1101871 19.0284274,42.1277133 C19.003357,42.1847753 18.9843519,42.2446905 18.9718167,42.3058285 C18.93785,42.4118009 18.9313802,42.5251099 18.954429,42.634343 C18.9600901,42.6901823 18.9710079,42.7456141 18.9871824,42.7990079 C19.0320668,42.9053879 19.0894863,43.0052466 19.1582281,43.0973611 C19.1715721,43.1116266 19.1760201,43.1311908 19.1901728,43.1454563 L20.0029431,43.9638896 L18.753056,45.2192554 L17.9730392,44.4322063 C17.956056,44.4159028 17.935029,44.4106042 17.9180458,44.3955234 C17.8274685,44.3246035 17.7271863,44.2671338 17.6204344,44.2247448 C17.5674628,44.2092565 17.5136825,44.1990669 17.4586891,44.1933606 C17.402887,44.1839862 17.3458717,44.1807255 17.2892609,44.1827634 C17.2358849,44.1884697 17.1833177,44.1986593 17.1319636,44.2141476 C17.0709047,44.2271903 17.0114633,44.2475697 16.9552568,44.2744703 C16.9350386,44.2842524 16.9127986,44.2842524 16.8933892,44.2960725 C15.0025864,45.3941099 12.6580879,45.321152 10.8380487,44.1069524 C10.6261623,43.9610365 10.424385,43.8000399 10.2339298,43.6264081 C10.2242251,43.6182564 10.2197771,43.6060288 10.2092637,43.5970619 C10.0345788,43.4588901 9.87728145,43.3003391 9.74020226,43.1242618 C9.732115,43.1144797 9.72079282,43.1108114 9.71270556,43.1010293 C9.53802061,42.9078335 9.37708406,42.7020024 9.23151327,42.485574 C8.0285324,40.6522508 7.95736446,38.2906958 9.04671916,36.3864525 C9.05804133,36.3660733 9.05804133,36.3440635 9.06895917,36.3232766 C9.0936253,36.2690677 9.11343908,36.2124131 9.12718748,36.1541284 C9.16560202,35.9902786 9.16196268,35.8194999 9.11667399,35.6572806 C9.09847766,35.6059247 9.07502464,35.5566068 9.04671916,35.5105496 C9.01881812,35.4559329 8.98566038,35.4045771 8.9468415,35.3572971 C8.93187998,35.340586 8.92662328,35.318984 8.91085309,35.3030882 L8.13002751,34.516039 L9.37991453,33.2570048 L10.1906629,34.0750305 C10.2658746,34.1479885 10.3536214,34.2062734 10.4494555,34.2478471 C10.4729086,34.2592595 10.4971704,34.2694493 10.5218365,34.2780086 C10.6152445,34.3138762 10.7143134,34.3330326 10.8141912,34.3350707 C10.914069,34.3326251 11.013138,34.3134685 11.1065459,34.2780086 C11.1308077,34.2698568 11.1542607,34.2596672 11.1773094,34.2486624 C11.2003582,34.2380651 11.2250243,34.2335817 11.248073,34.2201313 C11.7373527,33.942565 12.2662599,33.7432553 12.8157896,33.6291312 C15.5347284,33.0458751 19.813701,30.0513385 23.4796587,27.0890012 C23.4893635,27.081257 23.5010901,27.078404 23.5107948,27.0706598 C23.5204995,27.0625081 23.5176689,27.0588399 23.522117,27.0543564 C24.8472155,25.9787361 26.091037,24.9173813 27.1508732,23.9701508 C28.2337582,23.0021333 29.135084,22.1547614 29.7125148,21.5662068 L32.3299585,18.9368675 C32.587538,19.0611813 32.8305603,19.2132109 33.0549819,19.3909187 C33.0824787,19.4149662 33.1107841,19.4406441 33.1435375,19.4638765 L33.1560728,19.4736586 C33.2494807,19.553138 33.3420799,19.6322098 33.4306355,19.7202484 C33.5187866,19.8086946 33.5976375,19.9036622 33.6760839,19.9982222 L33.6833625,20.0071892 C33.7060069,20.0381656 33.7302687,20.0679195 33.7565523,20.0960429 L33.770705,20.1164222 L33.7496781,20.0960429 C33.7626177,20.1156071 33.784049,20.1396547 33.8034584,20.1637023 C33.8730089,20.2529636 33.9429638,20.3507843 34.0028095,20.4494203 C34.0707425,20.5606913 34.1326102,20.6756307 34.1884123,20.7934231 C34.1928603,20.8032052 34.198117,20.812172 34.2033737,20.8227693 L31.6021046,23.453739 Z M38.1168019,24.4429509 C37.951013,24.6100613 37.7261869,24.7042137 37.4916562,24.7042137 C37.2575299,24.7042137 37.0322995,24.6100613 36.8669148,24.4429509 L36.545446,24.1181046 C36.3481167,23.9114583 36.2591569,23.6232949 36.3060629,23.3408375 C36.3060629,23.3220886 36.3060629,23.3025244 36.3101066,23.2829603 C36.3307292,23.1215561 36.3501386,22.9585216 36.3578214,22.7359794 L36.3578214,22.702965 C36.3622694,22.5525656 36.3578214,22.4029814 36.347308,22.2578807 C36.347308,22.2338331 36.347308,22.2089704 36.347308,22.1849227 L36.347308,22.1563917 C36.319407,21.7104923 36.2389387,21.2694839 36.1079249,20.8423335 C36.0990289,20.8109493 36.095794,20.7860865 36.0860893,20.7530721 L36.0808326,20.7400293 C36.0242217,20.5680279 35.9550757,20.4005099 35.8826946,20.2350298 C35.8737986,20.2154657 35.8669244,20.1922333 35.8588371,20.1734844 L35.8588371,20.1657402 C35.8430669,20.1319105 35.8289143,20.096858 35.8131441,20.0630285 C35.770686,19.9664304 35.721758,19.8722781 35.667169,19.7817939 L35.5583952,19.5930815 C35.5410076,19.56292 35.5248331,19.5315359 35.5066367,19.50382 L35.492484,19.4789573 C35.4039284,19.3501599 35.3157772,19.2119883 35.2219649,19.0925654 L35.2033642,19.0705558 C35.1600973,19.0126786 35.115213,18.9564316 35.0711374,18.9001846 C34.9518502,18.7493778 34.8244757,18.6050923 34.6894185,18.4685508 C34.5114986,18.2928811 34.3230652,18.1282162 34.1249273,17.9761866 L34.1152226,17.9680348 C34.1002611,17.9558072 34.0852997,17.9423569 34.0703382,17.9305369 C34.0161536,17.888963 33.9571165,17.841683 33.8936315,17.8017396 C33.8297421,17.7613886 33.7804097,17.7230754 33.7229902,17.6859851 C33.6865974,17.6619375 33.6574833,17.6411506 33.6162383,17.6146575 L33.4395314,17.515614 C33.3335883,17.4552912 33.2248146,17.3998595 33.1152321,17.3464657 C33.0845005,17.3322002 33.0489165,17.3093754 33.0198024,17.2967402 C33.004841,17.2906263 32.9870489,17.2853277 32.9720875,17.2779912 C32.809129,17.2038105 32.6425314,17.1377816 32.4722944,17.0803118 C32.4403497,17.0688994 32.4148749,17.0562643 32.3837389,17.0448518 L32.3566465,17.0375153 C32.1002802,16.9584436 31.8390615,16.8973056 31.5746079,16.8549166 C31.5297236,16.8471724 31.4864567,16.8418738 31.4484465,16.8365752 C31.3008539,16.8157883 31.1524526,16.8007076 31.0068818,16.7917407 C30.9102389,16.7827739 30.8168311,16.7795132 30.7294886,16.7786979 C30.7072486,16.7786979 30.6850086,16.7786979 30.663173,16.7786979 C30.640933,16.7786979 30.6259716,16.7786979 30.6081796,16.7786979 L30.3902277,16.7786979 C30.2381871,16.785627 30.0861465,16.8027456 29.9353191,16.8231248 L29.9219751,16.8231248 C29.8997351,16.8231248 29.8778994,16.8231248 29.8548507,16.8276083 C29.5742225,16.8736656 29.2887421,16.783589 29.0837299,16.5855021 L28.762261,16.2610634 C28.4173391,15.9133922 28.4173391,15.3497004 28.762261,15.0020293 L36.882685,6.81688099 L46.2364171,16.2578027 L38.1168019,24.4429509 Z M49.9844606,12.4798851 L40.6210238,3.04181665 L41.8709108,1.78155968 L51.2335389,11.220851 L49.9844606,12.4798851 Z" id="Shape"></path>
                    <path d="M35.8785201,12.8770352 C34.7068984,14.0490977 34.7072908,15.9492833 35.8789124,17.1209531 C37.0501419,18.2930156 38.9496129,18.2930156 40.1212347,17.1209531 C41.2928564,15.9492833 41.2928564,14.0490977 40.121627,12.8770352 C38.9484358,11.7073279 37.0505342,11.7077204 35.8777354,12.8778203 L35.8785201,12.8770352 Z M38.9084139,15.9096388 C38.4065706,16.4120635 37.5923994,16.4116709 37.0905561,15.9092463 C36.5887128,15.4072142 36.5887128,14.5931293 37.0905561,14.0907047 C37.5923994,13.5882801 38.4065706,13.5882801 38.9084139,14.0903122 C39.1497224,14.331319 39.2854831,14.65868 39.2854831,15.0001718 C39.2854831,15.341271 39.1497224,15.668632 38.9084139,15.9096388 Z" id="Shape"></path>
                    <path d="M11.1715877,36.1808058 C9.60947076,37.740721 9.60947076,40.2701484 11.1715877,41.8300636 C12.7337047,43.3899788 15.2662954,43.3899788 16.8284123,41.8300636 C18.3905292,40.2701484 18.3905292,37.740721 16.8284123,36.1808058 C16.0817374,35.425025 15.0628417,35 14,35 C12.9367513,35 11.9182625,35.425025 11.1715877,36.1808058 L11.1715877,36.1808058 Z M15.5714758,40.5748987 C14.6913354,41.4111335 13.3086646,41.4111335 12.4285242,40.5748987 C11.5605911,39.7081888 11.5609979,38.3030868 12.4285242,37.4367833 C13.2964573,36.5700735 14.7035427,36.5700735 15.5710689,37.4367833 C16.4390021,38.3030868 16.4390021,39.7081888 15.5714758,40.5748987 Z" id="Shape"></path>
                </g>
            </g>
        </g>
    </g>
</svg>