<svg id="Layer_1" data-name="Layer 1" xmlns="http://www.w3.org/2000/svg" viewBox="0 0 130 130"><defs><style>.cls-1{fill:#ef3e23;}</style></defs><title>_deliveryico4</title><path class="cls-1" d="M65,85.41A20.41,20.41,0,1,1,85.41,65,20.44,20.44,0,0,1,65,85.41Zm0-37.82A17.41,17.41,0,1,0,82.41,65,17.43,17.43,0,0,0,65,47.59Z"/><path class="cls-1" d="M56.14,119.83l-.25,0a55.45,55.45,0,0,1-45.7-45.7,1.51,1.51,0,0,1,1.24-1.73,1.49,1.49,0,0,1,1.72,1.24,52.46,52.46,0,0,0,43.23,43.23,1.5,1.5,0,0,1-.24,3Z"/><path class="cls-1" d="M56.14,105.25l-.34,0a41.45,41.45,0,0,1-31-31,1.5,1.5,0,0,1,2.93-.67,38.39,38.39,0,0,0,28.76,28.76,1.5,1.5,0,0,1-.33,3Z"/><path class="cls-1" d="M118.33,57.64a1.5,1.5,0,0,1-1.48-1.26A52.46,52.46,0,0,0,73.62,13.15a1.5,1.5,0,1,1,.49-3,55.45,55.45,0,0,1,45.7,45.7,1.51,1.51,0,0,1-1.24,1.73Z"/><path class="cls-1" d="M103.75,57.64a1.5,1.5,0,0,1-1.46-1.17A38.39,38.39,0,0,0,73.53,27.71a1.5,1.5,0,1,1,.67-2.93,41.45,41.45,0,0,1,31,31,1.5,1.5,0,0,1-1.13,1.8A2,2,0,0,1,103.75,57.64Z"/><path class="cls-1" d="M11.67,57.64l-.24,0a1.51,1.51,0,0,1-1.24-1.73,55.45,55.45,0,0,1,45.7-45.7,1.5,1.5,0,1,1,.49,3A52.46,52.46,0,0,0,13.15,56.38,1.5,1.5,0,0,1,11.67,57.64Z"/><path class="cls-1" d="M26.25,57.64a2,2,0,0,1-.34,0,1.5,1.5,0,0,1-1.13-1.8,41.45,41.45,0,0,1,31-31,1.5,1.5,0,0,1,.67,2.93A38.39,38.39,0,0,0,27.71,56.47,1.5,1.5,0,0,1,26.25,57.64Z"/><path class="cls-1" d="M73.86,119.83a1.5,1.5,0,0,1-.24-3,52.46,52.46,0,0,0,43.23-43.23,1.5,1.5,0,1,1,3,.49,55.45,55.45,0,0,1-45.7,45.7Z"/><path class="cls-1" d="M73.86,105.25a1.5,1.5,0,0,1-.33-3,38.39,38.39,0,0,0,28.76-28.76,1.5,1.5,0,0,1,2.93.67,41.45,41.45,0,0,1-31,31Z"/></svg>