<svg id="Layer_1" data-name="Layer 1" xmlns="http://www.w3.org/2000/svg" viewBox="0 0 130 130"><defs><style>.cls-1{fill:#ef3e23;}</style></defs><title>_deliveryico2</title><path class="cls-1" d="M58.83,77.65A12.65,12.65,0,1,1,71.48,65,12.66,12.66,0,0,1,58.83,77.65Zm0-22.3A9.65,9.65,0,1,0,68.48,65,9.65,9.65,0,0,0,58.83,55.35Z"/><path class="cls-1" d="M58.83,92a1.5,1.5,0,0,1,0-3,24,24,0,0,0,24-24,1.5,1.5,0,0,1,3,0A27,27,0,0,1,58.83,92Z"/><path class="cls-1" d="M33.38,66.5a1.5,1.5,0,0,1-1.5-1.5,27,27,0,0,1,27-26.95,1.5,1.5,0,0,1,0,3A24,24,0,0,0,34.88,65,1.5,1.5,0,0,1,33.38,66.5Z"/><path class="cls-1" d="M58.83,106.26a41.2,41.2,0,1,1,39.41-29,1.5,1.5,0,1,1-2.87-.89,38.26,38.26,0,1,0-36.54,26.88,37.91,37.91,0,0,0,16.39-3.68,1.5,1.5,0,0,1,1.29,2.71A41,41,0,0,1,58.83,106.26Z"/><path class="cls-1" d="M58.83,120.56A55.62,55.62,0,0,1,3.27,65a1.5,1.5,0,0,1,3,0,52.61,52.61,0,0,0,74.1,48,1.5,1.5,0,1,1,1.23,2.73A55.12,55.12,0,0,1,58.83,120.56Z"/><path class="cls-1" d="M112,76.15a1.24,1.24,0,0,1-.27,0,1.5,1.5,0,0,1-1.21-1.74A52.56,52.56,0,0,0,58.83,12.44a1.5,1.5,0,0,1,0-3A55.53,55.53,0,0,1,114.4,65a56.53,56.53,0,0,1-.88,9.91A1.52,1.52,0,0,1,112,76.15Z"/><path class="cls-1" d="M126.68,84.61a.26.26,0,0,0-.2-.1h-2.65a.26.26,0,0,0-.24.18L115,113.21l-8.81-28.52a.25.25,0,0,0-.24-.18H104a.25.25,0,0,0-.24.18L95,113.21,86.32,84.69a.26.26,0,0,0-.24-.18h-2.6a.26.26,0,0,0-.2.1.27.27,0,0,0,0,.23l10.45,34.85a.26.26,0,0,0,.24.18h1.8a.27.27,0,0,0,.24-.18l9-28.89,9,28.89a.26.26,0,0,0,.24.18H116a.26.26,0,0,0,.24-.18l10.45-34.85A.27.27,0,0,0,126.68,84.61Z"/></svg>