<svg id="Layer_1" data-name="Layer 1" xmlns="http://www.w3.org/2000/svg" viewBox="0 0 130 130"><defs><style>.cls-1{fill:#ef3e23;}</style></defs><title>_deliveryico5</title><path class="cls-1" d="M59.33,77.65A12.65,12.65,0,1,1,72,65,12.66,12.66,0,0,1,59.33,77.65Zm0-22.3A9.65,9.65,0,1,0,69,65,9.65,9.65,0,0,0,59.33,55.35Z"/><path class="cls-1" d="M59.33,92a1.5,1.5,0,0,1,0-3,23.91,23.91,0,0,0,24-24,1.5,1.5,0,0,1,3,0,26.92,26.92,0,0,1-27,27Z"/><path class="cls-1" d="M33.88,66.5a1.5,1.5,0,0,1-1.5-1.5A27,27,0,0,1,59.33,38.05a1.5,1.5,0,0,1,0,3A24,24,0,0,0,35.38,65,1.5,1.5,0,0,1,33.88,66.5Z"/><path class="cls-1" d="M59.33,106.26A41.26,41.26,0,1,1,100.59,65a40.38,40.38,0,0,1-.22,4.26,1.5,1.5,0,0,1-3-.31c.13-1.3.2-2.63.2-4a38.22,38.22,0,1,0-28.15,36.91,29.48,29.48,0,0,0,6.75-2.59A1.5,1.5,0,0,1,77.6,102a31.21,31.21,0,0,1-7.45,2.85A40.93,40.93,0,0,1,59.33,106.26Z"/><path class="cls-1" d="M59.33,120.56A55.62,55.62,0,0,1,3.77,65a1.5,1.5,0,0,1,3,0,52.62,52.62,0,0,0,66.45,50.71A1.5,1.5,0,1,1,74,118.6,55.73,55.73,0,0,1,59.33,120.56Z"/><path class="cls-1" d="M113.32,69.43h-.08a1.5,1.5,0,0,1-1.42-1.58c.05-.94.08-1.9.08-2.85A52.62,52.62,0,0,0,59.33,12.44a1.5,1.5,0,0,1,0-3A55.63,55.63,0,0,1,114.9,65c0,1,0,2-.08,3A1.51,1.51,0,0,1,113.32,69.43Z"/><path class="cls-1" d="M115.77,79.14a.25.25,0,0,0-.24-.18h-1.8a.25.25,0,0,0-.24.18l-9,28.88-9-28.88a.25.25,0,0,0-.24-.18h-1.8a.25.25,0,0,0-.24.18L82.74,114a.24.24,0,0,0,0,.22.23.23,0,0,0,.2.1h2.65a.25.25,0,0,0,.24-.17l8.61-28.52,8.81,28.52a.25.25,0,0,0,.24.17h1.9a.25.25,0,0,0,.24-.17l8.81-28.52,8.66,28.52a.25.25,0,0,0,.24.17H126a.23.23,0,0,0,.2-.1.24.24,0,0,0,0-.22Z"/></svg>