<svg id="Layer_1" data-name="Layer 1" xmlns="http://www.w3.org/2000/svg" viewBox="0 0 130 130"><defs><style>.cls-1{fill:#ef3e23;}</style></defs><title>_deliveryico3</title><path class="cls-1" d="M60.21,110.25H22.48a1.52,1.52,0,0,1-1.3-.75L2.32,76.83a1.49,1.49,0,0,1,0-1.5L21.18,42.65a1.52,1.52,0,0,1,1.3-.75H60.21a1.5,1.5,0,0,1,0,3H23.35l-18,31.18,18,31.17H60.21a1.5,1.5,0,1,1,0,3ZM41.35,91.92a15.84,15.84,0,0,1,0-31.68h0a15.84,15.84,0,0,1,0,31.68Zm0-28.68A12.84,12.84,0,1,0,50.43,67a12.74,12.74,0,0,0-9.08-3.76Z"/><path class="cls-1" d="M73.31,55.37a1.5,1.5,0,0,1-1.5-1.5V33.14L50.91,16.48a3.84,3.84,0,0,1-.79-5.2,4,4,0,0,1,3.32-1.7H80.17a1.5,1.5,0,0,1,0,3H53.44a1,1,0,0,0-.83.37.86.86,0,0,0,.17,1.18L74.24,31.25a1.48,1.48,0,0,1,.57,1.17V53.87A1.5,1.5,0,0,1,73.31,55.37Z"/><path class="cls-1" d="M86.84,53.19a1.51,1.51,0,0,1-1.38-.92,1.49,1.49,0,0,1,.79-2L102,43.58a.87.87,0,0,0,.53-.8V32.42a1.48,1.48,0,0,1,.57-1.17l21.37-17a1,1,0,0,0,.41-.87.86.86,0,0,0-.86-.76H97.16a1.5,1.5,0,0,1,0-3H124a3.85,3.85,0,0,1,3.83,3.32,4,4,0,0,1-1.51,3.66L105.52,33.14v9.64a3.87,3.87,0,0,1-2.35,3.56L87.43,53.06A1.37,1.37,0,0,1,86.84,53.19Z"/><path class="cls-1" d="M75.68,81.15a3.87,3.87,0,0,1-3.87-3.87V69.65a3.87,3.87,0,0,1,2.35-3.56l26-11.09a3.86,3.86,0,0,1,3.65.33h0a3.87,3.87,0,0,1,1.74,3.23v7.62a3.85,3.85,0,0,1-2.35,3.56l-26,11.1A3.93,3.93,0,0,1,75.68,81.15Zm26-23.46a.8.8,0,0,0-.34.07l-26,11.09a.87.87,0,0,0-.53.8v7.63a.85.85,0,0,0,.39.72.88.88,0,0,0,.82.08L102,67a.86.86,0,0,0,.53-.8V58.56a.9.9,0,0,0-.39-.73h0A.9.9,0,0,0,101.65,57.69Z"/><path class="cls-1" d="M88.66,120.42a3.91,3.91,0,0,1-2.15-.65l-13-8.69a3.85,3.85,0,0,1-1.72-3.22V93.06a3.87,3.87,0,0,1,2.35-3.56L88,83.6a1.5,1.5,0,1,1,1.18,2.76l-13.81,5.9a.86.86,0,0,0-.53.8v14.8a.85.85,0,0,0,.39.73l13,8.68a.89.89,0,0,0,1,0l13-9.47a.86.86,0,0,0,.36-.7V82a1.5,1.5,0,0,1,3,0v25.12a3.88,3.88,0,0,1-1.59,3.13l-13,9.47A3.91,3.91,0,0,1,88.66,120.42Z"/></svg>