<?xml version="1.0" encoding="UTF-8"?>
<svg width="34px" height="21px" viewBox="0 0 34 21" version="1.1" xmlns="http://www.w3.org/2000/svg" xmlns:xlink="http://www.w3.org/1999/xlink">
    <!-- Generator: Sketch 59.1 (86144) - https://sketch.com -->
    <title>tripadvisor</title>
    <desc>Created with Sketch.</desc>
    <g id="Page-1" stroke="none" stroke-width="1" fill="none" fill-rule="evenodd" opacity="0.315708705">
        <g id="Desktop-HD" transform="translate(-1268.000000, -32.000000)" fill="#FFFFFF" fill-rule="nonzero">
            <g id="Header">
                <g id="Group" transform="translate(1196.000000, 32.000000)">
                    <g id="tripadvisor" transform="translate(72.000000, 0.000000)">
                        <path d="M9,4 L1.125,4 C0.62325,4 0.1845,4.312375 0.045,4.767125 C-0.0945,5.224 0.10125,5.710625 0.5265,5.961375 C0.5355,5.96775 1.305,6.441625 1.90125,7.304375 C0.6705,8.78125 0,10.596 0,12.5 C0,17.18775 4.0365,21 9,21 C13.9635,21 18,17.18775 18,12.5 C18,7.81225 13.9635,4 9,4 Z M9,18.875 C5.2785,18.875 2.25,16.01475 2.25,12.5 C2.25,10.88075 2.90025,9.344375 4.077,8.175625 C4.39425,7.861125 4.4775,7.4 4.2885,7.00475 C4.1355,6.686 3.96,6.390625 3.77325,6.125 L9,6.125 C12.7215,6.125 15.75,8.98525 15.75,12.5 C15.75,16.01475 12.7215,18.875 9,18.875 Z" id="Shape"></path>
                        <path d="M20.5578313,15.2309639 C20.0786546,14.8446017 19.408237,14.9549909 19.055838,15.4973379 L17.5559936,17.8059122 L15.9207764,15.4637412 C15.5554847,14.9405923 14.8786208,14.8446017 14.4123368,15.2549616 C13.9460528,15.6629217 13.8622506,16.416448 14.2275422,16.9395969 L16.7416081,20.539245 C16.9457417,20.8296167 17.257314,21 17.5882252,21 C17.5946715,21 17.6011178,21 17.6075642,21 C17.9449217,20.9928007 18.2607915,20.8104185 18.45633,20.5056483 L20.7941964,16.9060002 C21.1422979,16.3708525 21.0391567,15.6197259 20.5578313,15.2309639 Z" id="Path"></path>
                        <path d="M28.6588688,4.23365636 C22.2985017,-1.41020256 12.7014983,-1.41223492 6.34113124,4.23365636 C5.91459775,4.611675 5.88323499,5.25390021 6.27422402,5.6685013 C6.6631222,6.08513474 7.32383094,6.1115554 7.75036443,5.73353676 C13.3099357,0.801003238 21.6921551,0.801003238 27.2496356,5.73353676 C27.4503572,5.91238429 27.7033501,5.99977569 27.9542522,5.99977569 C28.2386078,5.99977569 28.5208726,5.88799599 28.725776,5.6685013 C29.116765,5.25390021 29.0854023,4.611675 28.6588688,4.23365636 Z" id="Path"></path>
                        <path d="M9,9 C6.794,9 5,10.794 5,13 C5,15.206 6.794,17 9,17 C11.206,17 13,15.206 13,13 C13,10.794 11.206,9 9,9 Z M9,15 C7.898,15 7,14.104 7,13 C7,11.898 7.898,11 9,11 C10.102,11 11,11.898 11,13 C11,14.104 10.102,15 9,15 Z" id="Shape"></path>
                        <path d="M9.00497512,12 L8.98507463,12 C8.4358209,12 8,12.448 8,13 C8,13.552 8.45572139,14 9.00497512,14 C9.55422886,14 10,13.552 10,13 C10,12.448 9.55422886,12 9.00497512,12 Z" id="Path"></path>
                        <path d="M32.0965,7.304375 C32.69275,6.44375 33.46675,5.9635 33.4735,5.961375 C33.89875,5.7085 34.0945,5.221875 33.955,4.767125 C33.81775,4.312375 33.37675,4 32.875,4 L25,4 C20.0365,4 16,7.81225 16,12.5 C16,17.18775 20.0365,21 25,21 C29.9635,21 34,17.18775 34,12.5 C34,10.598125 33.3295,8.78125 32.0965,7.304375 Z M25,18.875 C21.2785,18.875 18.25,16.01475 18.25,12.5 C18.25,8.98525 21.2785,6.125 25,6.125 L30.22675,6.125 C30.04,6.390625 29.8645,6.686 29.7115,7.00475 C29.52475,7.4 29.60575,7.86325 29.923,8.175625 C31.102,9.3465 31.75,10.88075 31.75,12.5 C31.75,16.01475 28.7215,18.875 25,18.875 Z" id="Shape"></path>
                        <path d="M25,9 C22.794,9 21,10.794 21,13 C21,15.206 22.794,17 25,17 C27.206,17 29,15.206 29,13 C29,10.794 27.206,9 25,9 Z M25,15 C23.896,15 23,14.104 23,13 C23,11.898 23.896,11 25,11 C26.104,11 27,11.898 27,13 C27,14.104 26.104,15 25,15 Z" id="Shape"></path>
                        <path d="M26.0049751,12 L25.9850746,12 C25.4358209,12 25,12.448 25,13 C25,13.552 25.4577114,14 26.0049751,14 C26.5542289,14 27,13.552 27,13 C27,12.448 26.5542289,12 26.0049751,12 Z" id="Path"></path>
                    </g>
                </g>
            </g>
        </g>
    </g>
</svg>