<?xml version="1.0" encoding="UTF-8"?>
<svg width="21px" height="21px" viewBox="0 0 21 21" version="1.1" xmlns="http://www.w3.org/2000/svg" xmlns:xlink="http://www.w3.org/1999/xlink">
    <!-- Generator: Sketch 59.1 (86144) - https://sketch.com -->
    <title>facebook-3</title>
    <desc>Created with Sketch.</desc>
    <g id="Page-1" stroke="none" stroke-width="1" fill="none" fill-rule="evenodd" opacity="0.315708705">
        <g id="Desktop-HD" transform="translate(-1196.000000, -32.000000)" fill="#FFFFFF" fill-rule="nonzero">
            <g id="Header">
                <g id="Group" transform="translate(1196.000000, 32.000000)">
                    <g id="facebook-3">
                        <path d="M17.9238281,0 L3.07617188,0 C1.38011171,0 0,1.38011171 0,3.07617188 L0,17.9238281 C0,19.6198883 1.38011171,21 3.07617188,21 L9.26953125,21 L9.26953125,13.5761719 L6.80859375,13.5761719 L6.80859375,9.88476562 L9.26953125,9.88476562 L9.26953125,7.3828125 C9.26953125,5.3472519 10.9253769,3.69140625 12.9609375,3.69140625 L16.6933594,3.69140625 L16.6933594,7.3828125 L12.9609375,7.3828125 L12.9609375,9.88476562 L16.6933594,9.88476562 L16.078125,13.5761719 L12.9609375,13.5761719 L12.9609375,21 L17.9238281,21 C19.6198883,21 21,19.6198883 21,17.9238281 L21,3.07617188 C21,1.38011171 19.6198883,0 17.9238281,0 Z" id="Path"></path>
                    </g>
                </g>
            </g>
        </g>
    </g>
</svg>