<?xml version="1.0" encoding="UTF-8"?>
<svg width="46px" height="47px" viewBox="0 0 46 47" version="1.1" xmlns="http://www.w3.org/2000/svg" xmlns:xlink="http://www.w3.org/1999/xlink">
    <!-- Generator: Sketch 59.1 (86144) - https://sketch.com -->
    <title>online-support</title>
    <desc>Created with Sketch.</desc>
    <g id="Symbols" stroke="none" stroke-width="1" fill="none" fill-rule="evenodd">
        <g id="Services" transform="translate(-168.000000, -3.000000)" fill="#53B3CB" fill-rule="nonzero">
            <g id="Group-10" transform="translate(168.000000, 3.000000)">
                <g id="online-support">
                    <g id="Group">
                        <path d="M45.497,6.1658125 C45.4137273,5.94632617 45.2259091,5.78439648 44.9982727,5.73556055 C44.7704545,5.68672461 44.5338182,5.7575 44.3692727,5.92365234 L41.1210909,9.20355469 C41.0294545,9.29608594 40.8800909,9.29617773 40.7883636,9.20355469 L38.679,7.0735 C38.5872727,6.98087695 38.5872727,6.83014648 38.679,6.73752344 L41.9271818,3.45762109 C42.0917273,3.29146875 42.1618182,3.05242969 42.1134545,2.82247852 C42.065,2.59261914 41.9046364,2.40305859 41.6873636,2.31888086 C39.2453636,1.37318945 36.4734545,1.96775781 34.6256364,3.83362109 C32.9079091,5.56812305 32.2766364,8.1221875 32.9553636,10.4556641 L30.5498182,12.676873 C30.1860909,12.4822637 29.8112727,12.307666 29.4279091,12.1559258 L29.5259091,10.8589277 C29.5770909,10.1833027 29.1164545,9.58919336 28.4546364,9.47692578 L26.7595455,9.18950977 C26.0974545,9.07733398 25.4702727,9.48693164 25.3,10.1421777 L24.973,11.4004375 C24.6127273,11.4153086 24.2530909,11.4482637 23.8964545,11.4991191 L23.5733636,10.8040332 L23.5733636,9.23504102 C23.5733636,9.23467383 23.5733636,9.23439844 23.5733636,9.23403125 L23.5733636,9.22595313 C23.5733636,9.21594727 23.5724545,9.20796094 23.5721818,9.19887305 C23.5717273,9.18730664 23.5716364,9.17564844 23.5706364,9.16408203 C23.5702727,9.15967578 23.5695455,9.15591211 23.569,9.15168945 C23.5578182,9.04566406 23.5227273,8.94055664 23.4607273,8.84517969 C23.2525455,8.5247168 22.8263636,8.43567383 22.5090909,8.64570508 C21.7776364,9.13039258 20.0353636,9.42808984 19.1082727,9.42808984 C16.8370909,9.42808984 14.6494545,8.60871094 12.7921818,7.11269727 L10.6245455,4.75342578 C11.0391818,4.12682031 11.5072727,3.5866875 12.0211818,3.14514453 C14.1739091,1.2954375 16.7042727,1.38806055 16.7277273,1.3895293 C18.3270909,1.47288086 19.8435455,2.20441016 21.2351818,3.56346289 C22.4750909,4.77453906 23.4009091,6.49995439 23.9869091,8.69169531 C24.0858182,9.06172852 24.4630909,9.28093945 24.8295455,9.18078906 C25.196,9.08082227 25.4129091,8.69995703 25.3139091,8.32992383 C24.6623636,5.89280859 23.6115455,3.95350781 22.1907273,2.56572266 C20.5536364,0.966621094 18.7394545,0.104464844 16.7987273,0.00321289062 C16.6742727,-0.00312109375 13.7125455,-0.130810547 11.1305455,2.08791992 C10.3890909,2.72499023 9.73290909,3.525 9.17945455,4.46564258 C9.17918182,4.46610156 9.17890909,4.46637695 9.17863636,4.46683594 C9.17772727,4.46839648 9.17681818,4.46995703 9.17590909,4.47151758 C9.17409091,4.47463867 9.17209091,4.47775977 9.17018182,4.48088086 C9.16972727,4.48161523 9.16954545,4.48234961 9.16909091,4.48308398 C8.65463636,5.31926172 8.29327273,6.2303457 8.09572727,7.19136719 C7.91981818,8.04764844 7.87854545,8.92394141 7.97318182,9.79564453 C7.99481818,9.99447656 8.10036364,10.1743066 8.26272727,10.2889609 C8.37918182,10.3712109 8.51681818,10.4140801 8.65636364,10.4140801 C8.71136364,10.4140801 8.76663636,10.4073789 8.82090909,10.3938848 C8.99290909,10.3510156 9.16309091,10.3029141 9.33136364,10.2497637 L9.33136364,14.5373203 C9.33136364,16.954791 10.5201818,19.0959531 12.3372727,20.4001113 L12.3372727,21.5449102 C12.3372727,22.1092773 12.0379091,22.6266445 11.5454545,22.9896094 C11.522,23.0037461 11.4990909,23.0192598 11.4771818,23.036334 C11.1909091,23.2324121 10.8465455,23.3794707 10.4599091,23.4557539 L7.28690909,24.0830937 C4.34572727,24.664627 2.29145455,26.8902422 2.29145455,29.4953457 L2.29145455,39.2110352 C2.29145455,40.9240566 2.941,42.5455566 4.12045455,43.7766445 L5.87854545,45.6118477 L0.751272727,45.6118477 C0.371727273,45.6118477 0.064,45.9225801 0.064,46.305832 C0.064,46.689084 0.371727273,46.9998164 0.751272727,46.9998164 L7.49963636,46.9998164 L7.97581818,46.9998164 L25.1746364,46.9998164 L26.1090909,46.9998164 L32.0761818,46.9998164 C32.4557273,46.9998164 32.7634545,46.689084 32.7634545,46.305832 C32.7634545,45.9225801 32.4557273,45.6118477 32.0761818,45.6118477 L27.5568182,45.6118477 L29.2478182,43.5191543 C30.2866364,42.2334473 30.8588182,40.6115801 30.8588182,38.9523516 L30.8588182,32.0103047 C31.2577273,31.7794355 31.6439091,31.5239648 32.0111818,31.244627 L33.0566364,32.0082852 C33.2859091,32.1758145 33.5505455,32.2573301 33.813,32.2573301 C34.1727273,32.2573301 34.5285455,32.1040293 34.7832727,31.8085352 L35.9120909,30.4996953 C36.353,29.9887539 36.3350909,29.2343672 35.8708182,28.7451816 L34.98,27.806375 C35.2176364,27.3757559 35.4265455,26.9287969 35.6049091,26.4695371 L36.8894545,26.5685859 C37.5593636,26.6193496 38.1469091,26.155041 38.258,25.4868516 L38.5426364,23.7751152 C38.6537273,23.1069258 38.2480909,22.4733438 37.5991818,22.3014082 L36.3530909,21.9712148 C36.3383636,21.607332 36.3057273,21.2442754 36.2554545,20.8841563 L37.4209091,20.3316309 C38.0282727,20.0437559 38.3135455,19.3464668 38.0842727,18.7095801 L37.4970909,17.0784414 C37.292,16.5088418 36.7407273,16.1701113 36.1622727,16.2286777 L37.3095455,14.9443477 C39.6574545,15.6959805 42.2364545,15.0740566 43.9970909,13.2962266 C45.8447273,11.4306387 46.4335455,8.63166016 45.497,6.1658125 Z M23.5731818,14.5371367 L23.5731818,12.9567617 C23.5906364,12.954834 23.6078182,12.9546504 23.6252727,12.9512539 C24.2406364,12.8318262 24.872,12.7740859 25.4994545,12.779502 C25.5014545,12.779502 25.5034545,12.779502 25.5055455,12.779502 C25.8176364,12.779502 26.0909091,12.5669922 26.1702727,12.2616758 L26.6095455,10.5713281 L28.1493636,10.8324902 L28.0176364,12.5750703 C27.9937273,12.8917695 28.1859091,13.1846016 28.4840909,13.2857617 C28.817,13.3986719 29.1439091,13.5311348 29.4627273,13.6807637 L28.1641818,14.8799062 C27.7300909,14.7251367 27.2811818,14.6076367 26.8243636,14.530252 C25.7363636,14.3457402 24.6287273,14.3918223 23.5702727,14.6604199 C23.5707273,14.6191113 23.5731818,14.5784453 23.5731818,14.5371367 Z M23.3875455,16.161666 C24.4147273,15.8076055 25.5168182,15.7159004 26.5963636,15.8989434 C26.7241818,15.9206074 26.8512727,15.9462187 26.9773636,15.9753184 L20.8190909,21.6622266 C20.8162727,21.6233047 20.8128182,21.5843828 20.8128182,21.5449102 L20.8128182,20.2157832 C22.0842727,19.218043 23.0122727,17.7961094 23.3875455,16.161666 Z M9.85945455,8.55142969 C9.77154545,8.57254297 9.69036364,8.61036328 9.61918182,8.66195312 C9.51345455,8.70821875 9.40681818,8.75274023 9.29863636,8.79377344 C9.30436364,8.35048633 9.352,7.90885156 9.44136364,7.47345898 C9.53690909,7.00823242 9.68063636,6.55778516 9.86663636,6.12441211 C10.3092727,6.67216406 10.7815455,7.17677148 11.2797273,7.63520508 C10.7748182,8.04544531 10.344,8.29816211 10.1475455,8.40483008 C10.0530909,8.45614453 9.95663636,8.50442969 9.85945455,8.55142969 Z M10.7058182,14.5372285 L10.7058182,9.67575781 C10.7366364,9.65960156 10.7678182,9.64399609 10.7983636,9.62747266 C11.0611818,9.48491211 11.6750909,9.12369141 12.3632727,8.5305 C14.3672727,10.0106328 16.6920909,10.8161504 19.1080909,10.8161504 C19.8495455,10.8161504 21.1674545,10.6591777 22.1938182,10.3297188 L22.1987273,14.5373203 C22.1987273,17.7369004 19.6209091,20.3398926 16.4523636,20.3398926 C13.2838182,20.3398926 10.7058182,17.7368086 10.7058182,14.5372285 Z M29.4843636,38.9525352 L29.4843636,38.9525352 C29.4843636,40.2929531 29.0220909,41.6031699 28.1827273,42.6418516 L27.1029091,43.9782305 L27.1029091,32.9548027 C27.1029091,31.8561777 26.3132727,30.9408711 25.277,30.7557168 C25.3211818,30.3724648 25.5100909,30.0230859 25.8133636,29.7772539 L26.5391818,29.1889277 C26.8351818,28.9489707 26.8825455,28.5122012 26.6449091,28.2134023 C26.4072727,27.9145117 25.9747273,27.8665938 25.6788182,28.1066426 L24.953,28.6949688 C24.3312727,29.1989336 23.9561818,29.9274336 23.9000909,30.7209258 L13.0235455,30.7209258 C12.644,30.7209258 12.3362727,31.0316582 12.3362727,31.4149102 C12.3362727,31.7981621 12.644,32.1088945 13.0235455,32.1088945 L24.8906364,32.1088945 C25.3526364,32.1088945 25.7285455,32.4884746 25.7285455,32.9548945 L25.7285455,45.0526211 C25.7285455,45.3610586 25.48,45.6119395 25.1746364,45.6119395 L7.97554545,45.6119395 C7.89072727,45.6119395 7.81054545,45.5919277 7.73854545,45.5573203 L7.46709091,45.2739434 C7.438,45.2059219 7.42154545,45.1311992 7.42154545,45.0524375 L7.42154545,32.9548945 C7.42154545,32.4883828 7.79745455,32.1088945 8.25936364,32.1088945 L10.3067273,32.1088945 C10.6862727,32.1088945 10.994,31.7981621 10.994,31.4149102 C10.994,31.0316582 10.6862727,30.7209258 10.3067273,30.7209258 L8.94318182,30.7209258 C8.88709091,29.9273418 8.51190909,29.1988418 7.89027273,28.6949688 L7.16445455,28.1066426 C6.86836364,27.8665938 6.43581818,27.9145117 6.19836364,28.2134023 C5.96072727,28.512293 6.00809091,28.9491543 6.30409091,29.1889277 L7.02990909,29.7773457 C7.353,30.0391504 7.54536364,30.4190059 7.57190909,30.8318164 C6.68763636,31.1244648 6.047,31.9653242 6.047,32.9548945 L6.047,43.7916992 L5.10827273,42.8117676 C4.17818182,41.840832 3.66581818,40.5621016 3.66581818,39.211127 L3.66581818,29.4955293 C3.66581818,27.5631133 5.26345455,25.8976426 7.55081818,25.4452676 L10.7238182,24.8179277 C11.1254545,24.7385234 11.4990909,24.6066113 11.8370909,24.4321973 C12.2479091,24.7496309 12.6886364,25.0251133 13.1527273,25.2541465 C13.2498182,25.3020645 13.3526364,25.3247383 13.454,25.3247383 C13.7082727,25.3247383 13.9528182,25.181627 14.072,24.9353359 C14.2387273,24.5910059 14.0972727,24.1754414 13.7562727,24.0071777 C13.482,23.8717773 13.218,23.7160898 12.9654545,23.5426855 C13.4383636,22.982082 13.7117273,22.2894746 13.7117273,21.5449102 L13.7117273,21.1733164 C14.5558182,21.5300391 15.4815455,21.7278613 16.4522727,21.7278613 C17.5182727,21.7278613 18.5295455,21.4884551 19.4383636,21.0627012 L19.4383636,21.545002 C19.4383636,22.2891992 19.7113636,22.9814395 20.1839091,23.542043 C19.1243636,24.2684316 17.8688182,24.6629746 16.575,24.6629746 C16.3122727,24.6629746 16.0478182,24.6469102 15.7888182,24.6150566 C15.412,24.5684238 15.0693636,24.8395918 15.0235455,25.2200898 C14.9776364,25.6005879 15.2459091,25.9465703 15.6227273,25.9928359 C15.9364545,26.0313906 16.2568182,26.0509434 16.5749091,26.0509434 C18.2926364,26.0509434 19.9548182,25.4780391 21.3109091,24.4313711 C21.6495455,24.6062441 22.0236364,24.7386152 22.4260909,24.8181113 L25.5990909,25.4454512 C26.0494545,25.5344941 26.4726364,25.6712715 26.8626364,25.8471543 C26.8925455,25.8634941 26.9230909,25.8779063 26.9545455,25.8894727 C28.4928182,26.6179727 29.4840909,27.9738125 29.4840909,29.4956211 L29.4840909,38.9525352 L29.4843636,38.9525352 Z M28.2857273,25.0467773 L31.9200909,20.9780645 C32.1079091,21.815252 32.1333636,22.6858535 31.9905455,23.5443379 C31.7677273,24.8841133 31.1474545,26.109877 30.2202727,27.0716328 C29.7740909,26.2726328 29.1112727,25.5779141 28.2857273,25.0467773 Z M36.232,17.6275703 L36.7654545,19.1093555 L35.2,19.8513496 C34.9154545,19.986291 34.7577273,20.2988594 34.8171818,20.6106016 C34.9354545,21.2318828 34.9926364,21.8685859 34.9871818,22.5030859 C34.9844545,22.8207949 35.1956364,23.0997656 35.5,23.1804551 L37.174,23.6240176 L36.9153636,25.1789648 L35.1896364,25.0459512 C34.8761818,25.0217168 34.5860909,25.2158672 34.4858182,25.5169609 C34.25,26.2256328 33.932,26.906123 33.5402727,27.5397051 C33.3737273,27.8089453 33.4095455,28.1581406 33.6270909,28.3872656 L34.8237273,29.6482793 L33.7982727,30.8372324 L32.395,29.8122285 C32.1404545,29.626248 31.7933636,29.6382734 31.552,29.8415117 C31.3296364,30.0286855 31.0977273,30.2057617 30.8585455,30.3724648 L30.8585455,29.4955293 C30.8585455,29.1480781 30.8209091,28.8076035 30.7506364,28.4766758 C32.1248182,27.26 33.0415455,25.6044434 33.3459091,23.7742891 C33.5705455,22.4236816 33.4500909,21.0482891 33.0006364,19.7682734 L34.5032727,18.0860039 C34.5214545,18.0826074 34.5394545,18.0791191 34.5575455,18.0743457 L36.232,17.6275703 Z M43.025,12.3151016 C41.5382727,13.8162559 39.3152727,14.2775352 37.3618182,13.4904688 C37.0945455,13.382791 36.7893636,13.454668 36.5967273,13.670207 L31.7254545,19.1236758 C31.7054545,19.1435957 31.6866364,19.1645254 31.6692727,19.1864648 L27.0054545,24.4076875 C26.6426364,24.2718281 26.2614545,24.1620391 25.8632727,24.0832773 L22.6902727,23.4559375 C22.3037273,23.3794707 21.9592727,23.2325957 21.6730909,23.0365176 C21.6510909,23.0193516 21.6281818,23.0037461 21.6046364,22.9896094 C21.57,22.9640898 21.5372727,22.9371016 21.5046364,22.9101133 L34.2117273,11.1762695 C34.4184545,10.985332 34.4897273,10.6867168 34.3919091,10.4216992 C33.6745455,8.47964453 34.1478182,6.27881445 35.5974545,4.81502148 C36.7945455,3.60614844 38.481,3.07078906 40.1145455,3.32488281 L37.7070909,5.75593945 C37.403,6.063 37.2355455,6.47112891 37.2355455,6.90532813 C37.2355455,7.33961914 37.403,7.74774805 37.7070909,8.0547168 L39.8164545,10.1847715 C40.4441818,10.8186289 41.4654545,10.8186289 42.0930909,10.1847715 L44.5005455,7.75380664 C44.7523636,9.40312109 44.222,11.1063203 43.025,12.3151016 Z" id="Shape"></path>
                        <path d="M16.4109091,17.3646641 C17.1794545,17.3646641 17.902,17.0624687 18.4453636,16.5136152 C18.7137273,16.2426309 18.7137273,15.8031992 18.4453636,15.5322148 C18.1770909,15.2611387 17.7418182,15.2612305 17.4734545,15.5322148 C17.1896364,15.8188047 16.8121818,15.9766035 16.4108182,15.9766035 C16.0094545,15.9766035 15.6320909,15.8188047 15.3481818,15.5322148 C15.0799091,15.2612305 14.6447273,15.2612305 14.3762727,15.5322148 C14.1079091,15.8031074 14.1079091,16.2426309 14.3762727,16.5136152 C14.9197273,17.0624687 15.6423636,17.3646641 16.4109091,17.3646641 Z" id="Path"></path>
                    </g>
                    <circle id="Oval" cx="13.5" cy="11.5" r="1"></circle>
                    <circle id="Oval" cx="18.5" cy="11.5" r="1"></circle>
                    <path d="M16.5,36 C15.1214674,36 14,37.1214674 14,38.5 C14,39.8785326 15.1214674,41 16.5,41 C17.8785326,41 19,39.8785326 19,38.5 C19,37.1214674 17.8785326,36 16.5,36 Z M16.5,39.5424297 C15.9251455,39.5424297 15.4573775,39.0746617 15.4573775,38.4998072 C15.4573775,37.9249528 15.9251455,37.4571847 16.5,37.4571847 C17.0748545,37.4571847 17.5426225,37.9249528 17.5426225,38.4998072 C17.5426225,39.0747581 17.0748545,39.5424297 16.5,39.5424297 Z" id="Shape"></path>
                </g>
            </g>
        </g>
    </g>
</svg>