<?xml version="1.0" encoding="UTF-8"?>
<svg width="215px" height="215px" viewBox="0 0 215 215" version="1.1" xmlns="http://www.w3.org/2000/svg" xmlns:xlink="http://www.w3.org/1999/xlink">
    <!-- Generator: Sketch 58 (84663) - https://sketch.com -->
    <title>icons-01</title>
    <desc>Created with Sketch.</desc>
    <g id="icons-01" stroke="none" stroke-width="1" fill="none" fill-rule="evenodd">
        <g fill="#60C1D8" fill-rule="nonzero" id="Shape">
            <path d="M107.1,0 C48,0 0,48 0,107.1 C0,166.2 48,214.2 107.1,214.2 C166.2,214.2 214.2,166.2 214.2,107.1 C214.2,48 166.1,0 107.1,0 Z M134.5,75 C126.4,75.9 117.4,76.5 107,76.5 C96.6,76.5 87.6,75.9 79.5,75 C85.7,44.4 99.6,26.2 107,18.3 C114.4,26.2 128.3,44.4 134.5,75 Z M136.7,90.2 C137.2,95.6 137.6,101.1 137.6,107.1 C137.6,113.1 137.2,118.6 136.7,124 C127.9,123 118.2,122.4 107.1,122.4 C95.9,122.4 86.1,123 77.3,124 C76.8,118.6 76.4,113.1 76.4,107.1 C76.4,101.1 76.8,95.6 77.3,90.2 C86.1,91.2 95.8,91.8 107,91.8 C118.2,91.8 127.9,91.1 136.7,90.2 Z M88.1,17.3 C79.6,28.9 69.5,47.1 64.5,72.7 C44.8,68.8 33.9,62.8 28.9,59.3 C41.9,38.1 63.1,22.6 88.1,17.3 Z M15.3,107.1 C15.3,95.1 17.7,83.7 21.9,73.2 C29.2,78 41.9,84.1 62.3,88 C61.7,94.1 61.2,100.4 61.2,107.1 C61.2,113.9 61.6,120.2 62.3,126.2 C41.9,130.1 29.2,136.2 21.9,141 C17.7,130.5 15.3,119.1 15.3,107.1 Z M28.9,154.9 C34,151.3 44.9,145.3 64.5,141.5 C69.6,167.1 79.6,185.3 88.1,196.9 C63.1,191.6 41.9,176 28.9,154.9 Z M79.6,139.1 C87.7,138.2 96.8,137.6 107.2,137.6 C117.5,137.6 126.5,138.2 134.6,139.1 C128.4,169.7 114.5,187.9 107.1,195.8 C99.7,187.9 85.8,169.7 79.6,139.1 Z M126,196.8 C134.5,185.2 144.5,167 149.6,141.3 C169.2,145.2 180.2,151.1 185.3,154.7 C172.3,176 151,191.6 126,196.8 Z M198.8,107.1 C198.8,119.1 196.4,130.5 192.2,141 C184.9,136.2 172.2,130.1 151.8,126.2 C152.4,120.1 152.9,113.9 152.9,107.1 C152.9,100.3 152.4,94.1 151.8,88 C172.2,84.1 184.9,78 192.2,73.2 C196.4,83.7 198.8,95.1 198.8,107.1 Z M149.6,72.7 C144.5,47.1 134.5,28.8 126,17.3 C151.1,22.6 172.3,38.2 185.3,59.3 C180.1,62.9 169.2,68.8 149.6,72.7 Z"></path>
        </g>
    </g>
</svg>