<?xml version="1.0" encoding="UTF-8"?>
<svg width="286px" height="227px" viewBox="0 0 286 227" version="1.1" xmlns="http://www.w3.org/2000/svg" xmlns:xlink="http://www.w3.org/1999/xlink">
    <!-- Generator: Sketch 58 (84663) - https://sketch.com -->
    <title>icons-07</title>
    <desc>Created with Sketch.</desc>
    <g id="icons-07" stroke="none" stroke-width="1" fill="none" fill-rule="evenodd">
        <g fill="#60C1D8" fill-rule="nonzero">
            <path d="M229.6,210.8 L195.3,210.8 C196.2,208.4 196.6,205.8 196.6,203 L196.6,195.2 L234.9,195.2 C262.6,195.2 285.1,172.7 285.1,145 C285.1,131.6 279.9,119 270.4,109.5 L265.4,104.5 L222,61.2 C222,61.2 222,61.2 222,61.2 L199.9,39.1 C174.7,13.9 141.2,0 105.6,0 L12.6,0 C8.3,0 4.8,3.5 4.8,7.8 C4.8,12.1 8.3,15.6 12.6,15.6 L105.6,15.6 C137.1,15.6 166.7,27.9 188.9,50.1 L197.8,59 L147,59 C130.8,59 117.5,72.2 117.5,88.5 C117.5,104.8 130.7,118 147,118 L256.7,118 L259.4,120.7 C266,127.3 269.6,136 269.6,145.3 C269.6,164.4 254,180 234.9,180 L188.9,180 L157.9,180 L70.4,180 L39.4,180 L7.8,180 C3.5,180 0,183.5 0,187.8 C0,192.1 3.5,195.6 7.8,195.6 L31.7,195.6 L31.7,203.4 C31.7,206.1 32.2,208.7 33,211.2 L8.2,211.2 C3.9,211.2 0.4,214.7 0.4,219 C0.4,223.3 3.9,226.8 8.2,226.8 L94.1,226.8 C98.4,226.8 101.9,223.3 101.9,219 C101.9,214.7 98.4,211.2 94.1,211.2 L76.8,211.2 C77.7,208.8 78.1,206.2 78.1,203.4 L78.1,195.6 L150,195.6 L150,203.4 C150,206.1 150.5,208.7 151.3,211.2 L128.4,211.2 C124.1,211.2 120.6,214.7 120.6,219 C120.6,223.3 124.1,226.8 128.4,226.8 L229.5,226.8 C233.8,226.8 237.3,223.3 237.3,219 C237.4,214.3 233.9,210.8 229.6,210.8 Z M147,102.3 C139.3,102.3 133,96 133,88.3 C133,80.6 139.3,74.3 147,74.3 L213.3,74.3 L241.2,102.2 L147,102.3 L147,102.3 Z M62.7,203.1 C62.7,207.4 59.2,210.9 54.9,210.9 C50.6,210.9 47.1,207.4 47.1,203.1 L47.1,195.3 L62.6,195.3 C62.7,195.3 62.7,203.1 62.7,203.1 Z M181.1,203.1 C181.1,207.4 177.6,210.9 173.3,210.9 C169,210.9 165.5,207.4 165.5,203.1 L165.5,195.3 L181,195.3 L181.1,203.1 L181.1,203.1 Z" id="Shape"></path>
            <path d="M69.9,58.9 L46,58.9 C41.7,58.9 38.2,62.4 38.2,66.7 C38.2,71 41.7,74.5 46,74.5 L69.9,74.5 C77.6,74.5 83.9,80.8 83.9,88.5 C83.9,96.2 77.6,102.5 69.9,102.5 L16.4,102.5 C12.1,102.5 8.6,106 8.6,110.3 C8.6,114.6 12.1,118.1 16.4,118.1 L69.9,118.1 C86.1,118.1 99.4,104.9 99.4,88.6 C99.4,72.3 86.1,58.9 69.9,58.9 Z" id="Path"></path>
            <path d="M21.9,61.2 C20.5,59.8 18.5,58.9 16.4,58.9 C14.4,58.9 12.4,59.7 10.9,61.2 C9.5,62.6 8.6,64.6 8.6,66.7 C8.6,68.7 9.4,70.7 10.9,72.2 C12.3,73.6 14.3,74.5 16.4,74.5 C18.4,74.5 20.4,73.7 21.9,72.2 C23.3,70.8 24.2,68.8 24.2,66.7 C24.2,64.6 23.3,62.6 21.9,61.2 Z" id="Path"></path>
        </g>
    </g>
</svg>