<?xml version="1.0" encoding="UTF-8"?>
<svg width="81px" height="94px" viewBox="0 0 81 94" version="1.1" xmlns="http://www.w3.org/2000/svg" xmlns:xlink="http://www.w3.org/1999/xlink">
    <!-- Generator: Sketch 55 (78076) - https://sketchapp.com -->
    <title>Fill 4</title>
    <desc>Created with Sketch.</desc>
    <g id="Symbols" stroke="none" stroke-width="1" fill="none" fill-rule="evenodd">
        <g id="Group-6" transform="translate(-39.000000, -34.000000)" fill="#FFFFFF">
            <g id="Fill-4">
                <path d="M104.3999,79.6628 L107.1649,77.0888 C109.8339,79.9488 111.2629,83.7618 111.0729,87.6698 C110.8819,91.6738 109.1669,95.2958 106.3059,97.9658 L103.7329,95.2018 C105.9249,93.1998 107.1649,90.5308 107.2599,87.5758 C107.3549,84.6198 106.4019,81.8548 104.3999,79.6628 L104.3999,79.6628 Z M93.4369,112.6458 C92.1979,112.6458 90.8639,112.5508 89.6249,112.3598 L90.1959,108.5468 C91.3399,108.7378 92.3889,108.8328 93.5329,108.8328 C105.6389,108.8328 115.4579,99.0138 115.4579,86.9078 C115.4579,82.6178 114.1239,78.4238 111.7409,74.8008 L111.1689,73.9428 L111.5489,72.9898 C112.4079,70.9878 112.7889,68.7958 112.7889,66.6028 C112.7889,59.7398 108.6899,53.6388 102.2079,51.1598 L100.9679,50.6838 L101.0639,48.9678 C101.0639,43.1528 96.3919,38.4808 90.5779,38.4808 C87.9089,38.4808 85.2389,39.5298 83.3329,41.4368 C84.9539,43.2478 86.2879,45.2498 87.2409,47.6328 L83.7139,49.0628 C81.1399,42.3898 74.3719,38.1958 67.2219,38.7668 C62.8369,39.1488 58.9289,41.1508 56.0689,44.4868 C53.2099,47.8238 51.8749,52.0178 52.2559,56.4028 C52.4469,58.4048 53.0189,60.4068 53.8769,62.2178 L54.6389,63.7428 L53.1139,64.6008 C46.9179,68.3188 43.1999,74.9918 43.1999,82.2368 C43.1999,93.5798 52.5419,102.8278 63.8859,103.0178 C66.3639,103.0178 68.8429,102.5408 71.1309,101.6838 L72.4649,105.2098 C69.7009,106.1628 66.8409,106.7358 63.8859,106.7358 C50.3499,106.7358 39.3869,95.7728 39.3869,82.2368 C39.3869,74.1338 43.2959,66.7938 49.8729,62.2178 C49.1099,60.4068 48.7289,58.4998 48.5379,56.5938 C48.0619,51.2548 49.6819,46.0128 53.2099,41.9128 C56.7359,37.8138 61.5979,35.3358 66.9369,34.8588 C71.8939,34.4778 76.7549,35.9078 80.5679,38.7668 C83.2379,36.0988 86.8599,34.5728 90.6729,34.5728 C98.2039,34.5728 104.4959,40.5788 104.9719,48.0148 C112.1219,51.4458 116.6969,58.5958 116.6969,66.6028 C116.6969,68.9858 116.2199,71.3698 115.4579,73.5618 C117.9359,77.6608 119.2709,82.2368 119.1749,86.9078 C119.1749,101.1118 107.6409,112.6458 93.4369,112.6458 L93.4369,112.6458 Z M97.0599,127.9938 C88.9579,127.9938 82.2839,121.3208 82.2839,113.2178 L82.2839,62.2178 L86.0969,62.2178 L86.0969,68.6048 C88.6709,68.4138 91.0539,67.2698 92.9609,65.4588 C95.0579,63.4568 96.2019,60.6928 96.2019,57.7378 L100.0149,57.7378 C100.0149,61.6458 98.3939,65.3638 95.6299,68.1278 C93.0559,70.7018 89.7189,72.2268 86.0969,72.4178 L86.0969,91.1978 C91.7209,90.7208 96.1069,86.0498 96.1069,80.3298 L99.9199,80.3298 C99.9199,88.1468 93.8189,94.5338 86.0969,95.0098 L86.0969,113.2178 C86.0969,119.2238 91.0539,124.1808 97.0599,124.1808 L97.0599,127.9938 Z M60.9309,51.1598 L57.5939,49.4438 C60.8359,43.2478 68.5569,40.7688 74.8489,44.0108 L73.1329,47.3468 C71.0359,46.2028 68.5569,46.0128 66.1739,46.7748 C63.8859,47.4418 62.0749,49.0628 60.9309,51.1598 L60.9309,51.1598 Z M78.9479,113.2178 C78.9479,121.3208 72.2749,127.9938 64.1719,127.9938 L64.1719,124.1808 C70.1779,124.1808 75.1349,119.2238 75.1349,113.2178 L75.1349,77.8518 C67.4129,77.3748 61.3119,70.9878 61.3119,63.1708 L65.1249,63.1708 C65.1249,68.8908 69.5099,73.5618 75.1349,74.0378 L75.1349,62.2178 L78.9479,62.2178 L78.9479,113.2178 Z"></path>
            </g>
        </g>
    </g>
</svg>