<?xml version="1.0" encoding="UTF-8"?>
<svg width="17px" height="21px" viewBox="0 0 17 21" version="1.1" xmlns="http://www.w3.org/2000/svg" xmlns:xlink="http://www.w3.org/1999/xlink">
    <!-- Generator: Sketch 55 (78076) - https://sketchapp.com -->
    <title>icons_delete</title>
    <desc>Created with Sketch.</desc>
    <g id="Page-1" stroke="none" stroke-width="1" fill="none" fill-rule="evenodd">
        <g id="Cart" transform="translate(-752.000000, -401.000000)" fill="#828282">
            <g id="icons_delete" transform="translate(752.000000, 401.000000)">
                <g id="Path">
                    <g>
                        <path d="M14.6650758,5.7954717 C14.2665072,5.79835028 13.9440948,6.12899296 13.9412879,6.53773585 L13.9412879,18.4667925 C13.9343391,19.0539264 13.4719131,19.5281568 12.8993939,19.535283 L4.05037879,19.535283 C3.47807617,19.5281426 3.01602757,19.0537127 3.00977273,18.4667925 L3.00977273,6.51396226 C2.9934003,6.11583212 2.67390598,5.80170877 2.28534091,5.80170877 C1.89677584,5.80170877 1.57728152,6.11583212 1.56090909,6.51396226 L1.56090909,18.4443396 C1.56515491,19.8399109 2.66764981,20.9699593 4.02848485,20.9735849 L12.8787879,20.9735849 C14.2394126,20.9699559 15.3415371,19.8396973 15.3450758,18.4443396 L15.3450758,6.51396226 C15.3532526,6.32464256 15.2849343,6.14024487 15.1562339,6.0042595 C15.0275335,5.86827414 14.8498448,5.79273994 14.6650758,5.7954717 Z" fill-rule="nonzero"></path>
                        <path d="M9.14393939,17.2371698 L9.14393939,7.72773585 C9.15480061,7.33117495 8.85181646,6.9998205 8.46522727,6.9854717 C8.27833391,6.98883219 8.10072576,7.06963258 7.97286592,7.20946473 C7.84500608,7.34929688 7.77778428,7.53625139 7.78651515,7.72773585 L7.78651515,17.2371698 C7.77565393,17.6337307 8.07863808,17.9650852 8.46522727,17.979434 C8.65212063,17.9760735 8.82972878,17.8952731 8.95758862,17.7554409 C9.08544847,17.6156088 9.15267026,17.4286543 9.14393939,17.2371698 L9.14393939,17.2371698 Z" fill-rule="nonzero"></path>
                        <path d="M6.20113636,17.2371698 L6.20113636,7.72773585 C6.21129069,7.33145034 5.90870005,7.00052626 5.52242424,6.9854717 C5.33542352,6.98884456 5.15769469,7.06960263 5.02963228,7.20939107 C4.90156987,7.34917951 4.83405199,7.53612414 4.84242424,7.72773585 L4.84242424,17.2371698 C4.8322834,17.6339513 5.13563953,17.9650842 5.52242424,17.979434 C5.7093176,17.9760735 5.88692575,17.8952731 6.01478559,17.7554409 C6.14264544,17.6156088 6.20986723,17.4286543 6.20113636,17.2371698 Z" fill-rule="nonzero"></path>
                        <path d="M12.0854545,17.2371698 L12.0854545,7.72773585 C12.0955954,7.33095439 11.7922393,6.99982148 11.4054545,6.9854717 C11.2185612,6.98883219 11.040953,7.06963258 10.9130932,7.20946473 C10.7852334,7.34929688 10.7180116,7.53625139 10.7267424,7.72773585 L10.7267424,17.2371698 C10.7165881,17.6334553 11.0191787,17.9643794 11.4054545,17.979434 C11.5924553,17.9760611 11.7701841,17.895303 11.8982465,17.7555146 C12.0263089,17.6157262 12.0938268,17.4287815 12.0854545,17.2371698 Z" fill-rule="nonzero"></path>
                        <path d="M16.2040909,2.91754717 L0.723787879,2.91754717 C0.337366619,2.90713363 0.0146798318,3.21744856 0,3.61358491 C0.00327684346,3.80524913 0.0820659662,3.98739112 0.218417448,4.11851486 C0.354768929,4.2496386 0.537069809,4.31857639 0.723787879,4.30962264 L16.1783333,4.30962264 C16.5652504,4.32077367 16.8887289,4.01024991 16.9034091,3.61358491 C16.9017277,3.42583586 16.8268446,3.24658656 16.6954639,3.11582222 C16.5640833,2.98505788 16.387135,2.91365706 16.2040909,2.91754717 L16.2040909,2.91754717 Z" fill-rule="nonzero"></path>
                        <path d="M6.40462121,1.52415094 L10.5258333,1.52415094 C10.9125231,1.53528942 11.2356296,1.22457093 11.2496212,0.828113208 C11.2463701,0.635967638 11.1672272,0.453399872 11.0303067,0.322195894 C10.8933863,0.190991916 10.7104101,0.122384142 10.5232576,0.132075472 L6.40204545,0.132075472 C6.01535566,0.120936995 5.69224922,0.431655482 5.67825758,0.828113208 C5.68150873,1.02025878 5.76065162,1.20282654 5.89757206,1.33403052 C6.03449251,1.4652345 6.21746872,1.53384227 6.40462121,1.52415094 Z" fill-rule="nonzero"></path>
                    </g>
                </g>
            </g>
        </g>
    </g>
</svg>