<?xml version="1.0" encoding="UTF-8"?>
<svg width="60px" height="60px" viewBox="0 0 60 60" version="1.1" xmlns="http://www.w3.org/2000/svg" xmlns:xlink="http://www.w3.org/1999/xlink">
    <!-- Generator: Sketch 59.1 (86144) - https://sketch.com -->
    <title>icon</title>
    <desc>Created with Sketch.</desc>
    <defs>
        <polygon id="path-1" points="8.64440079e-06 4.31372549e-06 21.9821493 4.31372549e-06 21.9821493 22 8.64440079e-06 22"></polygon>
    </defs>
    <g id="Welcome" stroke="none" stroke-width="1" fill="none" fill-rule="evenodd">
        <g id="Desktop-HD" transform="translate(-247.000000, -3309.000000)">
            <g id="Group-4" transform="translate(247.000000, 2452.000000)">
                <g id="Icon-Tick" transform="translate(0.000000, 857.000000)">
                    <circle id="Oval" fill="#FFFFFF" fill-rule="evenodd" cx="30" cy="30" r="30"></circle>
                    <g id="Tick" transform="translate(19.000000, 19.000000)">
                        <mask id="mask-2" fill="white">
                            <use xlink:href="#path-1"></use>
                        </mask>
                        <g id="Clip-2"></g>
                        <path d="M20.8794263,11 C20.3177564,11 19.8467662,11.4216667 19.7843104,11.9787843 C19.2925737,16.362651 15.53978,19.8 11.021611,19.8 C6.17210216,19.8 2.2043222,15.84 2.2043222,11 C2.2043222,6.16 6.17210216,2.2 11.021611,2.2 C11.6860629,2.2 12.2879725,2.26246275 12.8744086,2.38738824 C13.2394185,2.46516471 13.6192534,2.35740784 13.8832102,2.09401176 C14.4947151,1.48370588 14.1879686,0.435039216 13.3416385,0.257443137 C12.58011,0.0976196078 11.8008605,0 11.021611,0 C4.95972495,0 9.37916411e-13,4.95 9.37916411e-13,11 C9.37916411e-13,17.05 4.95972495,22 11.021611,22 C16.6700354,22 21.3615246,17.7021922 21.9752338,12.2213451 C22.0481493,11.5698863 21.5362279,11 20.8794263,11 M5.73123772,9.68 L5.73123772,9.68 C5.30511198,10.1052471 5.30511198,10.7947529 5.73123772,11.22 L9.46358743,14.9450314 C9.7153556,15.1962627 10.1235442,15.1962627 10.3753124,14.9450314 L19.3247308,6.01316078 C19.7508566,5.58787059 19.7508566,4.89840784 19.3247308,4.47311765 C18.8986483,4.04787059 18.2077878,4.04787059 17.7817053,4.47311765 L10.1978428,12.0421529 C10.0441022,12.1955922 9.79479764,12.1955922 9.64105697,12.0421529 L7.27426326,9.68 C6.84818075,9.25475294 6.15732024,9.25475294 5.73123772,9.68" id="Fill-1" fill="#C69544" fill-rule="evenodd" mask="url(#mask-2)"></path>
                    </g>
                </g>
            </g>
        </g>
    </g>
</svg>